ply
format ascii 1.0
comment torch-pointcloud: sample - torch-pointcloud
comment torch-pointcloud: Point cloud sample the torch-pointcloud documentation figures are rendered from.
comment torch-pointcloud: prepared by Arthur Dujardin, Copyright (c) 2024-2026 Arthur Dujardin, Apache-2.0, https://github.com/arthurdjn/pytorch-pointcloud
comment torch-pointcloud: geometry derived from ShapeNetPart; the source terms apply
element vertex 1024
property float x
property float y
property float z
property float nx
property float ny
property float nz
end_header
0.020878 -0.020084 -0.218157 -0.1282999962568283 0.9905999898910522 0.04645000025629997
0.007798 -0.021944 -0.212757 -0.1039000004529953 -0.9914000034332275 -0.07960999757051468
0.022008 -0.015044 -0.324917 -0.1445000022649765 0.9883999824523926 0.047029998153448105
0.090928 -0.034924 -0.033557 0.0662200003862381 -0.9603000283241272 -0.2711000144481659
-0.171082 0.036016 0.004393 0.1306000053882599 0.15690000355243683 0.9789000153541565
0.129408 0.009226 0.032083 0.024730000644922256 0.3637000024318695 0.9312000274658203
0.091458 0.026486 -0.009897 0.0 0.9958999752998352 -0.09046000242233276
0.074988 0.025946 -0.011547 -9.999999974752427e-07 0.9283999800682068 -0.3714999854564667
0.211868 0.027696 0.003133 0.017160000279545784 0.9850000143051147 -0.17180000245571136
0.113018 0.027166 0.010343 0.002561999950557947 0.9797999858856201 0.19979999959468842
0.037348 -0.048344 -0.094447 -0.06451000273227692 0.9620000123977661 0.2651999890804291
0.019768 -0.025754 0.188283 -0.08438999950885773 -0.9936000108718872 0.07489000260829926
0.022408 -0.015304 0.326333 -0.09925000369548798 -0.9921000003814697 0.07714000344276428
0.017608 -0.019354 0.268263 -0.12309999763965607 0.9912999868392944 -0.04617999866604805
0.012698 -0.023414 0.210103 -0.0902400016784668 -0.9929999709129333 0.07649999856948853
0.075948 -0.022274 -0.056117 0.07022000104188919 0.9914000034332275 -0.11020000278949738
0.025958 -0.015674 0.035513 3.199999991920777e-05 -0.00026500000967644155 1.0
0.300108 -0.001564 0.003673 0.06932000070810318 0.9976000189781189 0.004920999985188246
0.223128 -0.021484 0.035513 0.00023600000713486224 -0.005154000129550695 1.0
0.268698 0.002216 0.011333 0.5928999781608582 0.8050000071525574 0.02029000036418438
0.233448 -0.013164 -0.032067 -0.014329999685287476 -0.02353000082075596 -0.9995999932289124
-0.076052 0.009096 -0.029457 -0.054269999265670776 0.9873999953269958 -0.14839999377727509
-0.036152 0.024656 0.014503 0.1151999980211258 0.9532999992370605 0.2791999876499176
-0.025292 -0.028824 -0.033757 -0.21379999816417694 0.9265999794006348 -0.3093000054359436
-0.017252 -0.029354 -0.036907 -0.1160999983549118 -0.9850000143051147 -0.12770000100135803
-0.176082 0.008156 0.013223 -0.15369999408721924 0.060339998453855515 0.986299991607666
0.079928 -0.017604 0.035683 0.0712599977850914 0.890999972820282 0.44839999079704285
-0.088212 0.005786 -0.046777 -0.33489999175071716 -0.26600000262260437 0.9039000272750854
0.057088 -0.019654 0.038063 0.11209999769926071 0.7745000123977661 0.6226000189781189
0.332048 -0.012174 0.024913 0.4348999857902527 0.3788999915122986 0.8169000148773193
0.085968 -0.031954 0.074073 0.09398999810218811 -0.994700014591217 0.04185999929904938
0.084258 -0.031704 0.083753 0.09391999989748001 -0.994700014591217 0.042169999331235886
-0.045152 -0.014254 0.065933 -0.16369999945163727 -0.9799000024795532 0.11400000005960464
0.163758 -0.042574 -0.002647 0.0 -1.0 0.0
0.133948 -0.042574 -0.002877 0.0 -1.0 0.0
0.149018 -0.042574 -0.001947 0.0 -1.0 0.0
0.036468 -0.042574 -0.003907 -0.0325700007379055 -0.9994999766349792 -0.0
0.058038 0.027096 -0.007917 -0.00014899999951012433 0.9526000022888184 -0.30410000681877136
0.183778 0.027126 -0.007427 0.027580000460147858 0.9790999889373779 -0.20170000195503235
0.146298 0.027416 -0.003547 0.01793999969959259 0.9549000263214111 -0.2962999939918518
0.050778 0.005516 -0.029677 0.0 0.304500013589859 -0.9524999856948853
-0.063912 0.003816 0.047993 -0.0640299990773201 -0.9952999949455261 0.0727199986577034
-0.057402 0.000456 0.031393 0.1573999971151352 -0.7106999754905701 0.6855999827384949
0.196508 -0.010764 -0.032067 -1.9999999949504854e-06 1.8999999156221747e-05 -1.0
0.071208 -0.021814 0.051093 -0.1298999935388565 0.9907000064849854 -0.04032000154256821
0.055638 -0.022764 0.071093 -0.00469700014218688 0.9815999865531921 -0.19099999964237213
0.054288 -0.022794 0.100523 0.010300000198185444 0.9997000098228455 0.02019999921321869
0.060988 -0.022414 0.078453 -0.09227000176906586 0.9940999746322632 0.05764000117778778
0.039998 -0.023734 0.075263 -0.06272000074386597 0.9980000257492065 -0.0015879999846220016
0.059648 -0.022554 0.044563 0.01865999959409237 0.9562000036239624 0.2921999990940094
0.032708 -0.024214 0.058643 -0.06260000169277191 0.9980000257492065 -0.0016009999671950936
0.095368 0.006456 -0.029417 0.0 0.304500013589859 -0.9524999856948853
-0.006542 0.011376 -0.074217 0.07625000178813934 0.4018000066280365 -0.9125999808311462
-0.003152 0.015066 -0.072777 -0.06612999737262726 -0.5687999725341797 0.8198000192642212
-0.254162 0.038666 0.001843 -0.019029999151825905 -0.07085999846458435 0.9973000288009644
-0.014422 0.014306 -0.053377 0.9361000061035156 -0.06429000198841095 -0.3458000123500824
-0.058882 0.017836 -0.019617 -0.08169999718666077 0.847100019454956 -0.5249999761581421
-0.051062 0.016966 -0.021057 -0.07936999946832657 0.7232999801635742 -0.6858999729156494
0.306608 -0.035904 -0.018657 0.08747000247240067 -0.8842999935150146 -0.4587000012397766
-0.101842 -0.004214 0.025033 -0.13989999890327454 -0.10530000180006027 0.984499990940094
0.189068 0.008896 0.032173 0.043630000203847885 0.2635999917984009 0.9635999798774719
0.048708 -0.030574 -0.136557 0.04605000093579292 -0.9965999722480774 -0.06785000115633011
0.053778 -0.018954 0.204083 0.09866999834775925 0.993399977684021 -0.057840000838041306
0.062228 -0.017884 0.238973 -0.003183000022545457 0.9987000226974487 -0.050700001418590546
0.051108 -0.019134 0.196173 0.1655000001192093 0.9848999977111816 -0.05045999959111214
0.309068 -0.021744 -0.027257 0.17640000581741333 -0.14219999313354492 -0.9739999771118164
0.074938 -0.017974 -0.033317 0.18770000338554382 0.8787999749183655 -0.43869999051094055
0.040328 -0.038364 -0.099727 0.46239998936653137 -0.04464999958872795 -0.8855000138282776
0.237838 -0.036024 -0.025257 -0.00455200020223856 -0.9061999917030334 -0.42289999127388
0.096518 -0.040854 -0.013657 0.0 -0.9236999750137329 -0.3831999897956848
0.063958 0.001636 0.034213 -0.01728999987244606 0.4059000015258789 0.9136999845504761
-0.001142 -0.031834 0.037033 -0.10530000180006027 -0.9804999828338623 0.16609999537467957
-0.037392 0.016586 0.077993 -0.1039000004529953 0.8133000135421753 0.5724999904632568
0.201148 0.025566 0.016153 -0.004269000142812729 0.8554999828338623 0.517799973487854
0.099878 0.024536 0.019273 0.05429999902844429 0.9671000242233276 0.24869999289512634
0.137338 0.000346 -0.031137 9.999999747378752e-06 0.26179999113082886 -0.9650999903678894
0.017768 -0.030724 0.102033 -0.060910001397132874 -0.9980999827384949 0.006775000132620335
-0.223802 0.051976 0.080813 0.00886400043964386 -0.9825000166893005 0.18610000610351562
-0.217842 0.051426 0.077623 0.02250000089406967 -0.9825000166893005 0.18469999730587006
-0.224702 0.048946 0.064823 -0.017570000141859055 -0.9825000166893005 0.18549999594688416
0.053078 -0.037044 0.029263 -0.03172000125050545 -0.9656999707221985 0.25780001282691956
-0.014882 0.016756 0.026623 -0.026119999587535858 0.49630001187324524 0.8676999807357788
0.028378 0.011636 0.030533 -0.01104000024497509 0.44850000739097595 0.8937000036239624
-0.064742 0.003856 -0.044377 -0.07247000187635422 -0.7289000153541565 0.6808000206947327
-0.074302 0.005556 -0.075047 0.1080000028014183 0.23849999904632568 0.9650999903678894
0.071748 -0.021794 -0.041427 -0.05366000160574913 0.9642999768257141 -0.25929999351501465
0.043388 -0.023534 -0.065817 -0.062369998544454575 0.994700014591217 -0.08190999925136566
0.061968 -0.022374 -0.060287 -0.05883000046014786 0.9983000159263611 0.0015979999443516135
0.047798 -0.023264 -0.057597 -0.06233999878168106 0.994700014591217 -0.08196999877691269
0.062728 -0.022344 -0.050697 -0.06324999779462814 0.9980000257492065 0.0016479999758303165
0.264748 -0.041154 0.015393 0.017650000751018524 -0.9340999722480774 0.35659998655319214
-0.229232 0.041906 0.000593 -0.16449999809265137 0.6504999995231628 -0.7415000200271606
-0.192742 0.078106 0.001083 0.22689999639987946 0.20980000495910645 0.9509999752044678
0.007478 -0.039134 -0.012597 -0.0752200037240982 -0.9207000136375427 -0.3828999996185303
-0.204702 0.017936 0.006583 -0.09898000210523605 0.3253999948501587 0.9404000043869019
0.314038 -0.017454 0.029823 -0.00380899989977479 0.04848000034689903 0.9987999796867371
-0.056762 0.009476 -0.040987 -0.00011200000153621659 1.0 -0.002739999908953905
-0.054532 0.009496 -0.033477 -0.07513999938964844 0.9872000217437744 -0.14090000092983246
-0.295142 0.139846 0.001843 -0.05290000140666962 0.09002000093460083 -0.9944999814033508
-0.014332 -0.026084 -0.031137 -0.13379999995231628 0.9606000185012817 -0.2433999925851822
0.172058 -0.001814 -0.031527 -0.0001429999974789098 0.23510000109672546 -0.972000002861023
-0.171692 0.007066 -0.010477 -0.15559999644756317 0.12030000239610672 -0.9804999828338623
0.093938 0.027526 0.005523 -0.0 0.9850999712944031 0.17219999432563782
0.079388 0.027506 0.005733 -0.006175999995321035 0.9811000227928162 0.19339999556541443
0.052108 0.027526 0.005483 0.0 0.9973999857902527 0.0727199986577034
0.216998 -0.021494 0.035513 0.00010399999882793054 -6.000000212225132e-06 1.0
0.089998 -0.031684 -0.068027 0.09379000216722488 -0.994700014591217 -0.041430000215768814
0.085718 -0.031344 -0.085627 0.4043999910354614 -0.8967999815940857 -0.179299995303154
-0.245692 0.048506 0.001043 -0.0456399992108345 -0.01840999908745289 -0.9987999796867371
-0.263102 0.080566 0.001243 -0.0481100007891655 -0.019840000197291374 -0.9986000061035156
0.119308 -0.011104 0.035513 3.600000127335079e-05 -0.0004290000069886446 1.0
-0.027672 0.019676 -0.069687 -0.10209999978542328 0.946399986743927 -0.30649998784065247
0.049948 -0.027204 0.190033 0.0037640000227838755 -0.9973000288009644 0.0729300007224083
0.051988 -0.026864 0.193123 0.05510000139474869 -0.9958000183105469 0.0729300007224083
0.049568 -0.022534 0.254123 0.055080000311136246 -0.9958000183105469 0.07292000204324722
0.054188 -0.021544 0.264203 0.055309999734163284 -0.9958000183105469 0.07287999987602234
0.048988 -0.018934 0.303743 0.055330000817775726 -0.9958000183105469 0.07297000288963318
0.056948 -0.027084 0.186443 0.0551300011575222 -0.9958999752998352 0.07240000367164612
-0.022512 -0.026294 -0.028377 -0.20149999856948853 0.16859999299049377 -0.964900016784668
-0.016162 0.003826 0.033693 0.014639999717473984 -0.5473999977111816 0.8367000222206116
0.306448 -0.002474 -0.000567 0.2168000042438507 0.9757000207901001 -0.03173999860882759
-0.072312 -0.006564 0.060293 -0.16910000145435333 -0.8039000034332275 -0.5702000260353088
0.066088 -0.017974 -0.238307 0.1306000053882599 0.9873999953269958 0.08889999985694885
0.050058 -0.012424 -0.322447 0.301800012588501 0.9527999758720398 0.031769998371601105
0.061308 -0.014764 -0.291607 0.006798999849706888 0.9987999796867371 0.04944999888539314
0.245868 0.015816 0.009843 0.4668000042438507 0.8156999945640564 0.3416999876499176
-0.015772 -0.011614 0.071693 0.40540000796318054 -0.84170001745224 0.35670000314712524
-0.203822 0.021216 -0.000357 -0.120899997651577 0.6843000054359436 -0.7190999984741211
0.245708 0.003366 0.028193 0.37369999289512634 0.6207000017166138 0.689300000667572
0.023008 -0.015314 -0.316207 -0.20229999721050262 0.9787999987602234 0.03136000037193298
0.026238 -0.014704 -0.319367 -0.14339999854564667 0.9886000156402588 0.0458500012755394
0.032478 -0.014014 -0.314847 -0.09553000330924988 -0.9923999905586243 -0.07698000222444534
0.038348 -0.012564 -0.328027 -0.3977999985218048 0.9108999967575073 0.10930000245571136
0.003498 -0.031794 -0.034867 -0.07016000151634216 -0.9606999754905701 -0.2685999870300293
-0.253462 0.133806 0.001723 -0.0420599989593029 -0.07732000201940536 0.9961000084877014
-0.266812 0.111566 0.001723 -0.04154999926686287 -0.017729999497532845 0.9990000128746033
0.180478 -0.036004 -0.025307 1.2000000424450263e-05 -0.9045000076293945 -0.42640000581741333
0.175248 -0.021674 -0.032067 -3.000000106112566e-06 -0.01688000001013279 -0.9998999834060669
0.091008 -0.008064 0.035513 -0.0049959998577833176 0.06347999721765518 0.9980000257492065
0.074238 -0.022824 0.211923 0.7261999845504761 0.6875 0.007687999866902828
0.043728 -0.031014 0.127633 -0.05889999866485596 -0.9965000152587891 0.05900000035762787
0.054618 -0.023274 0.240253 0.05513999983668327 -0.9958000183105469 0.07287000119686127
0.056908 -0.025714 0.205163 0.055070001631975174 -0.9958999752998352 0.07241000235080719
0.064678 -0.026524 0.188243 0.055149998515844345 -0.9958000183105469 0.07298000156879425
0.056408 -0.024274 0.225213 0.08614999800920486 0.9947999715805054 -0.053939998149871826
-0.010962 -0.028974 0.067473 0.05065000057220459 0.9954000115394592 -0.08111000061035156
0.007088 -0.030024 0.096503 -0.1451999992132187 0.9857000112533569 0.0855100005865097
-0.201212 0.047886 0.054443 0.04535999894142151 -0.9824000000953674 0.18119999766349792
-0.219092 0.042156 0.027783 -0.005200000014156103 0.9861999750137329 -0.16519999504089355
-0.202922 0.051386 0.073913 0.0719899982213974 -0.9803000092506409 0.18369999527931213
0.089778 -0.038414 -0.019517 0.002623999956995249 -0.9358999729156494 -0.352400004863739
0.069398 -0.038974 -0.018177 -6.000000212225132e-06 -0.9520999789237976 -0.30570000410079956
0.071398 -0.040054 -0.015587 -3.999999989900971e-06 -0.9229000210762024 -0.38499999046325684
-0.249462 0.065946 0.001723 -0.04749999940395355 -0.019600000232458115 0.9987000226974487
-0.106242 0.021486 -0.009677 -0.04978000000119209 0.9643999934196472 -0.259799987077713
0.350708 -0.035334 0.002113 0.5117999911308289 -0.8553000092506409 0.08061999827623367
-0.019252 -0.012514 0.071983 0.10119999945163727 -0.661899983882904 0.7427999973297119
0.010048 -0.030134 -0.102617 -0.07134000211954117 -0.9965999722480774 -0.04239000007510185
-0.010952 -0.028674 -0.088987 -0.07779999822378159 -0.9969000220298767 -0.012350000441074371
0.252058 -0.064234 0.003683 -0.16339999437332153 -0.16699999570846558 0.9722999930381775
-0.248972 0.105826 0.001723 0.014279999770224094 0.055709999054670334 0.9983000159263611
0.052418 -0.020144 0.176553 0.2953999936580658 0.9538000226020813 0.05511999875307083
0.066158 -0.021344 0.175203 0.08271999657154083 0.9958000183105469 -0.03925999999046326
0.057918 -0.020334 0.183303 0.25920000672340393 0.9355000257492065 -0.24009999632835388
0.072158 -0.023864 0.123803 -0.06773000210523605 0.9955000281333923 -0.065700002014637
-0.006732 -0.028124 0.120643 0.016780000180006027 0.9987999796867371 -0.04693000018596649
0.016658 -0.025954 0.181783 -0.08933000266551971 -0.993399977684021 0.07201000303030014
-0.068662 0.017116 0.022433 -0.05039000138640404 0.6445000171661377 0.7628999948501587
-0.103822 0.017656 0.018123 0.009189999662339687 0.8496999740600586 0.5271000266075134
-0.077082 0.007866 0.052113 -0.7792999744415283 -0.27959999442100525 0.5608000159263611
0.327508 -0.021754 0.027223 0.1712000072002411 -0.026440000161528587 0.9848999977111816
-0.227212 0.011086 -0.001557 -0.15760000050067902 -0.016899999231100082 -0.9873999953269958
0.273658 -0.049444 0.000403 0.863099992275238 0.35370001196861267 -0.36039999127388
0.022308 -0.022364 0.168903 -0.01964999921619892 0.9987000226974487 -0.046640001237392426
0.023768 -0.023994 0.129373 0.041349999606609344 0.9904999732971191 -0.13120000064373016
0.259398 0.002546 -0.018937 0.48500001430511475 0.7633000016212463 -0.426800012588501
0.058908 -0.029824 0.144783 0.056759998202323914 -0.9959999918937683 0.06852000206708908
-0.191592 0.047806 -0.046927 0.7664999961853027 0.6419000029563904 0.022129999473690987
-0.160572 0.021086 -0.002357 0.016340000554919243 0.24379999935626984 -0.9696999788284302
-0.208632 0.048836 0.047593 -0.0038759999442845583 0.9861000180244446 -0.16590000689029694
-0.195352 0.046106 0.031093 -0.07107999920845032 0.984000027179718 -0.16329999268054962
-0.224952 0.041706 0.005593 0.03418000042438507 -0.9772999882698059 0.2092999964952469
-0.216942 0.048576 0.046283 0.16500000655651093 0.972100019454956 -0.16689999401569366
-0.063382 0.032916 0.001723 0.023089999333024025 0.1770000010728836 -0.9839000105857849
-0.232022 0.059426 -0.112047 -0.061969999223947525 -0.9811000227928162 -0.1834000051021576
-0.094142 0.008016 0.034803 -0.01460999995470047 0.9977999925613403 0.06424999982118607
0.036798 -0.028944 0.155733 -0.05962999910116196 -0.9965000152587891 0.05928000062704086
0.026008 -0.041904 0.010533 -0.08597999811172485 -0.9882000088691711 0.12639999389648438
-0.022732 -0.014244 0.065143 0.12729999423027039 -0.98089998960495 -0.1467999964952469
-0.187922 0.068246 0.001723 0.219200000166893 0.17299999296665192 0.9602000117301941
0.054288 -0.010744 -0.032067 -0.0005329999839887023 -0.059950001537799835 -0.998199999332428
0.034198 -0.048364 0.108803 0.2159000039100647 -0.04064000025391579 0.975600004196167
0.195308 0.017396 0.026863 -0.023339999839663506 0.44290000200271606 0.8963000178337097
0.049938 -0.017944 -0.313097 0.04510999843478203 -0.9962000250816345 -0.07444000244140625
0.055818 -0.025114 -0.210767 0.05511999875307083 -0.9958000183105469 -0.07292000204324722
-0.225282 0.044736 0.023693 0.08302000164985657 0.9835000038146973 -0.16099999845027924
-0.219862 0.053116 0.073653 0.02250000089406967 -0.9825000166893005 0.18469999730587006
-0.149742 0.014116 0.015263 -0.06323999911546707 0.5231000185012817 0.8499000072479248
-0.025252 -0.009854 0.054693 0.08162999898195267 -0.7031000256538391 -0.7063999772071838
-0.204242 0.059806 -0.110657 0.007141999900341034 0.9732999801635742 0.22930000722408295
0.035248 -0.014524 0.351933 -0.08570999652147293 -0.9929999709129333 0.08118999749422073
-0.055602 0.003816 -0.032537 0.0007340000011026859 -1.0 0.0030640000477433205
0.036748 0.027686 0.003243 5.500000042957254e-05 0.9693999886512756 0.24560000002384186
-0.096292 0.042866 0.001193 0.010759999975562096 0.3034000098705292 0.9527999758720398
0.010698 -0.025994 -0.081117 -0.10029999911785126 0.9948999881744385 -0.008806000463664532
0.282858 -0.042574 -0.003297 0.0 -1.0 -0.003019999945536256
-0.016862 0.001506 0.050203 0.13940000534057617 -0.24469999969005585 -0.9595000147819519
0.061688 -0.034784 -0.035747 -0.05009999871253967 -0.9677000045776367 -0.24699999392032623
0.035878 -0.033994 -0.033937 -0.04952000081539154 -0.9542999863624573 -0.2946999967098236
-0.072432 0.024616 -0.002167 -0.01940000057220459 0.7156999707221985 -0.6980999708175659
0.039168 -0.025114 0.214573 -0.06235000118613243 -0.9954000115394592 0.07327999919652939
0.031738 -0.024094 0.221833 -0.06622999906539917 -0.9950000047683716 0.07468000054359436
0.043858 -0.021224 0.271523 -0.06458000093698502 -0.995199978351593 0.07329999655485153
0.043858 -0.024154 0.231883 -0.04066000133752823 -0.9965000152587891 0.07315000146627426
0.147928 0.001256 0.034323 -0.015690000727772713 0.14000000059604645 0.9900000095367432
0.118368 -0.030614 0.034453 0.3801000118255615 -0.8047000169754028 0.4560000002384186
-0.071122 0.010716 0.069953 -1.0 0.0 0.0
-0.032782 0.025836 0.009683 0.1151999980211258 0.9532999992370605 0.2791999876499176
0.011998 -0.010594 0.035513 0.00012399999832268804 -1.4000000192027073e-05 1.0
-0.247712 0.051606 0.002373 -0.04596000164747238 -0.01858000084757805 0.9987999796867371
0.042018 -0.012604 0.325423 -0.14339999854564667 0.9897000193595886 -0.0034199999645352364
0.039418 -0.012404 0.331953 -0.02776999957859516 0.9959999918937683 -0.08528999984264374
0.008478 -0.040484 -0.007717 -0.07686000317335129 -0.9800999760627747 -0.18320000171661377
0.128098 0.027416 -0.003517 5.8000001445179805e-05 0.9972000122070312 -0.07428999990224838
0.157998 -0.009634 0.035513 -0.0003100000030826777 0.022360000759363174 0.9997000098228455
0.193448 -0.035984 -0.025357 -9.000000318337698e-06 -0.9042999744415283 -0.4269999861717224
-0.217472 0.021666 0.003173 -0.04120999947190285 0.007025000173598528 0.9991000294685364
0.291458 -0.001684 0.020223 0.13740000128746033 0.9693999886512756 0.20350000262260437
-0.003352 -0.005914 -0.064937 -0.23770000040531158 0.8709999918937683 0.4300000071525574
0.048218 -0.022684 0.117913 -0.06757000088691711 0.9922999739646912 -0.10400000214576721
0.043528 -0.021114 0.154713 -0.07694000005722046 0.9957000017166138 -0.05218999832868576
0.042788 -0.021004 0.157983 -0.07694000005722046 0.9957000017166138 -0.05218999832868576
0.044868 -0.021644 0.142783 -0.11209999769926071 0.9740999937057495 -0.19619999825954437
0.022338 -0.024684 0.117963 -0.0794999971985817 0.9952999949455261 -0.05462000146508217
0.048458 -0.051934 0.109133 0.03626000136137009 -0.10660000145435333 -0.9936000108718872
0.041138 -0.046464 0.108603 -0.0011109999613836408 0.09438999742269516 0.9955000281333923
-0.101052 0.037016 0.001723 0.012930000200867653 0.13590000569820404 -0.9905999898910522
-0.146052 0.037906 0.001723 0.02336999960243702 0.3294000029563904 0.9438999891281128
-0.156282 0.026296 0.001723 0.005936000030487776 0.1023000031709671 0.994700014591217
-0.095692 0.032946 0.001723 0.00587099976837635 0.10279999673366547 -0.994700014591217
-0.093082 0.027676 0.001723 -0.005861000157892704 0.5986999869346619 -0.8009999990463257
-0.070022 0.026106 0.001723 -0.01940000057220459 0.7156999707221985 -0.6980999708175659
-0.212482 0.087996 -0.000257 0.1388999968767166 0.12300000339746475 -0.9825999736785889
0.095758 0.000576 0.034513 0.012760000303387642 -0.087459996342659 0.9961000084877014
-0.240762 0.090276 0.000593 -0.0020149999763816595 -0.0005430000019259751 -1.0
-0.124052 -0.012874 0.018343 -0.20229999721050262 -0.7601000070571899 0.6175000071525574
-0.153772 -0.006824 0.014593 -0.19830000400543213 -0.42089998722076416 0.885200023651123
-0.111712 -0.008504 0.022823 -0.12929999828338623 -0.5209000110626221 0.8438000082969666
0.132048 0.022786 0.021703 0.0 0.9045000076293945 0.42640000581741333
0.230418 -0.008564 0.035513 2.2000000171829015e-05 -3.000000106112566e-06 1.0
-0.058152 0.039006 0.001543 0.05731000006198883 0.517799973487854 -0.853600025177002
-0.061352 0.035556 0.000633 0.030859999358654022 0.21649999916553497 -0.9757999777793884
-0.007992 -0.012834 0.035513 -0.005408000200986862 -0.08425000309944153 0.996399998664856
-0.026362 0.018286 -0.049807 -0.00015100000018719584 0.33959999680519104 0.9405999779701233
-0.086882 0.015776 -0.057027 -0.07870999723672867 0.8773000240325928 0.4733999967575073
0.295808 -0.038914 0.017873 0.04839000105857849 -0.8866999745368958 0.45969998836517334
0.063578 0.018326 -0.022817 -9.000000318337698e-06 0.5938000082969666 -0.8046000003814697
0.105818 -0.042574 0.002833 0.0 -1.0 0.0
0.084898 -0.042574 0.005503 0.0 -1.0 0.004929000046104193
0.036518 -0.018594 -0.297327 -0.07179000228643417 -0.994700014591217 -0.0730699971318245
0.103378 -0.020804 0.038133 0.008937000297009945 0.8421000242233276 0.5393000245094299
0.266488 -0.000284 -0.022827 0.10729999840259552 0.8278999924659729 -0.5504999756813049
-0.136272 0.030556 -0.000867 0.005931000225245953 0.1023000031709671 -0.994700014591217
-0.126922 0.024716 -0.001417 -0.060830000787973404 0.8327999711036682 -0.5501999855041504
-0.131752 0.045676 0.000713 -0.009669000282883644 0.0046339998953044415 0.9998999834060669
-0.210272 0.053126 -0.069727 -0.0038709999062120914 0.9854000210762024 0.17000000178813934
-0.202372 0.043566 -0.012727 -0.003854000009596348 0.9861000180244446 0.16590000689029694
-0.211032 0.056606 -0.090437 0.028200000524520874 -0.982699990272522 -0.18289999663829803
-0.219062 0.048666 -0.043397 -0.07596000283956528 0.9807999730110168 0.17960000038146973
0.251398 -0.005714 0.034643 0.006554999854415655 0.11289999634027481 0.9936000108718872
0.178398 -0.007834 0.035513 -0.0007190000033006072 0.07614000141620636 0.9970999956130981
0.061388 0.025296 0.016953 -0.004809000063687563 0.9474999904632568 0.3197000026702881
0.030958 -0.022384 0.149683 -0.2085999995470047 0.9779000282287598 0.011789999902248383
0.030058 -0.021984 0.160533 -0.1273999959230423 0.9911999702453613 -0.037039998918771744
0.280008 0.000856 0.010193 0.09125000238418579 0.991100013256073 0.09731999784708023
-0.198132 0.077416 0.001723 0.10499999672174454 0.10140000283718109 -0.989300012588501
-0.179202 0.063166 0.001723 0.10540000349283218 0.10189999639987946 -0.9891999959945679
0.024128 -0.014134 0.343213 -0.296999990940094 -0.9527999758720398 0.062139999121427536
-0.086302 0.013946 -0.069687 0.1551000028848648 -0.7422000169754028 0.6520000100135803
0.295078 -0.041014 -0.010457 0.041280001401901245 -0.9146999716758728 -0.40209999680519104
0.296978 -0.002224 -0.015547 0.15940000116825104 0.9778000116348267 -0.13570000231266022
0.065238 -0.015774 0.300833 0.5827999711036682 0.8118000030517578 0.035270001739263535
-0.212652 0.096386 0.001723 0.12219999730587006 0.1111999973654747 -0.986299991607666
-0.212392 0.102496 0.001723 0.27950000762939453 0.2540000081062317 0.9258999824523926
-0.234722 0.052586 -0.076937 -0.019869999960064888 0.9925000071525574 0.12060000002384186
-0.234562 0.058706 -0.109757 -0.06100999936461449 -0.9811000227928162 -0.1834000051021576
-0.067872 0.012296 -0.073477 -0.020390000194311142 0.5139999985694885 -0.8575999736785889
-0.028652 0.009496 0.046723 0.012690000236034393 0.9943000078201294 -0.1054999977350235
0.042588 -0.028464 -0.166087 -0.05237000063061714 -0.9969000220298767 -0.059530001133680344
-0.030202 -0.014574 0.069963 0.1137000024318695 -0.9854000210762024 0.1264999955892563
0.347898 -0.013024 -0.010017 0.5595999956130981 0.7286999821662903 -0.39489999413490295
0.006688 -0.030224 -0.066527 -0.07077000290155411 -0.9975000023841858 -0.007786999922245741
0.347378 -0.016924 0.019813 0.5730999708175659 0.21549999713897705 0.7906000018119812
0.272798 -0.056724 -0.001307 0.7318999767303467 -0.010219999589025974 0.6812999844551086
0.046398 -0.023164 -0.107917 -0.07693000137805939 0.9957000017166138 0.05215999856591225
0.044368 -0.020814 -0.155897 0.0157299991697073 0.9998999834060669 -0.0021619999315589666
0.048378 -0.022614 -0.115627 -0.07687000185251236 0.9957000017166138 0.0521400012075901
0.039468 -0.022634 -0.128367 -0.07694999873638153 0.9957000017166138 0.05218999832868576
0.267048 -0.025394 -0.029307 0.04828000068664551 -0.29420000314712524 -0.9545000195503235
0.121818 0.024776 -0.015077 0.0 0.906000018119812 -0.42329999804496765
0.022618 -0.031204 -0.069547 -0.058880001306533813 -0.998199999332428 -0.006448000203818083
0.256238 -0.035534 -0.025117 0.04726000130176544 -0.8765000104904175 -0.4790000021457672
0.022108 -0.030994 -0.096807 -0.05894000083208084 -0.998199999332428 -0.014650000259280205
0.210838 0.007296 -0.029177 -7.000000096013537e-06 0.532800018787384 -0.8461999893188477
0.183508 0.025126 0.017463 -0.05429999902844429 0.7103000283241272 0.7017999887466431
0.343048 -0.010114 -0.005667 0.37869998812675476 0.9171000123023987 -0.12470000237226486
-0.130012 0.008176 -0.016357 -0.1306000053882599 0.21580000221729279 -0.9677000045776367
-0.092302 -0.018014 -0.019467 -0.2282000035047531 -0.8206999897956848 -0.5238999724388123
-0.073712 -0.015414 -0.024517 -0.19009999930858612 -0.290800005197525 -0.9376999735832214
0.025568 -0.014304 -0.339677 -0.3034000098705292 0.9521999955177307 0.035599999129772186
-0.233132 0.067746 0.000533 0.042569998651742935 -0.00930199958384037 0.9991000294685364
-0.219592 0.050646 0.000083 -0.04575999826192856 -0.009757000021636486 -0.9988999962806702
-0.217812 0.062296 -0.000117 -0.04489000141620636 -0.009703000076115131 -0.9988999962806702
-0.219232 0.056246 0.000013 -0.045570001006126404 -0.00952600035816431 -0.9988999962806702
-0.007282 0.020086 0.067223 0.26170000433921814 0.9474999904632568 0.18389999866485596
-0.065592 0.017026 -0.071267 -0.12710000574588776 0.9588000178337097 -0.2540999948978424
-0.080682 0.024186 0.007053 -0.02855999954044819 0.9232000112533569 0.3831999897956848
-0.129322 0.022356 0.005573 -0.04623999819159508 0.9370999932289124 0.34599998593330383
0.324948 -0.030684 0.025723 0.16380000114440918 -0.7218000292778015 0.6723999977111816
0.175678 -0.042574 -0.009217 0.0 -0.92330002784729 -0.3840000033378601
0.052528 -0.020704 -0.158867 0.08906000107526779 0.9914000034332275 0.09606999903917313
0.055968 -0.022534 -0.117947 0.08727999776601791 0.9955000281333923 0.03726999834179878
0.033888 -0.028364 -0.158717 -0.06554000079631805 -0.9958999752998352 -0.06164000183343887
-0.013452 0.023636 -0.015567 -0.015410000458359718 0.7483999729156494 -0.6629999876022339
-0.195112 0.016176 -0.005377 -0.12470000237226486 0.46209999918937683 -0.878000020980835
-0.014422 0.007416 -0.062497 0.8567000031471252 -0.5156000256538391 0.014189999550580978
0.340278 -0.024054 0.022853 0.33739998936653137 -0.04749999940395355 0.9401999711990356
-0.010822 -0.010694 0.068053 0.3783999979496002 -0.8895000219345093 0.25609999895095825
0.097708 -0.039184 0.021123 -4.999999873689376e-06 -0.9229000210762024 0.38510000705718994
0.063798 -0.040434 0.018123 0.0 -0.9233999848365784 0.3837999999523163
-0.236602 0.050186 -0.061007 -0.07632999867200851 -0.9793999791145325 -0.1868000030517578
0.192888 -0.013154 0.035513 2.700000004551839e-05 1.2000000424450263e-05 1.0
-0.006852 -0.024604 -0.029627 -0.07830999791622162 0.2816999852657318 -0.9563000202178955
-0.134432 0.004786 -0.016347 -0.15919999778270721 0.03265000134706497 -0.9866999983787537
-0.195222 0.081956 0.002233 0.22689999639987946 0.20980000495910645 0.9509999752044678
-0.119112 0.006576 -0.020937 -0.26759999990463257 0.6689000129699707 -0.6934999823570251
-0.049262 0.009486 -0.036157 -0.028470000252127647 0.9750000238418579 0.22020000219345093
-0.125402 0.011476 -0.016007 -0.13109999895095825 0.41609999537467957 -0.8998000025749207
0.033468 -0.012344 -0.353557 -0.2775999903678894 0.9406999945640564 0.19519999623298645
0.061918 -0.013624 -0.323297 0.39070001244544983 -0.9125000238418579 -0.12099999934434891
-0.027462 -0.033214 -0.020027 -0.0734499990940094 -0.9200000166893005 -0.3849000036716461
-0.008912 -0.033454 -0.023047 -0.0750499963760376 -0.9204999804496765 -0.38359999656677246
-0.034302 0.023076 0.063983 -0.07109999656677246 0.9534000158309937 -0.29330000281333923
0.326808 -0.020374 -0.024137 0.17919999361038208 -0.1818999946117401 -0.9668999910354614
0.054898 -0.030884 -0.129177 0.056689999997615814 -0.9959999918937683 -0.06837999820709229
0.057698 -0.029114 -0.152647 0.056540001183748245 -0.9961000084877014 -0.06832999736070633
0.053748 -0.029324 -0.152827 0.056609999388456345 -0.9961000084877014 -0.06829000264406204
-0.206332 0.045606 0.028373 -0.0038759999442845583 0.9853000044822693 -0.17100000381469727
-0.223572 0.043136 0.014073 0.12970000505447388 0.9672999978065491 -0.21789999306201935
-0.210932 0.041436 0.003693 -0.14630000293254852 -0.4424000084400177 0.8848000168800354
0.167288 0.013436 -0.025997 0.0 0.532800018787384 -0.8461999893188477
-0.071122 0.004146 -0.060027 -0.9998999834060669 0.010590000078082085 0.010830000042915344
0.046598 -0.016604 -0.235047 0.0013119999784976244 0.9987999796867371 0.04909000173211098
0.036048 -0.017864 -0.230347 -0.09519000351428986 0.9941999912261963 0.05039000138640404
-0.227332 0.063096 0.135503 -0.007449999917298555 -0.6912999749183655 0.7225000262260437
0.210848 -0.042574 -0.007137 0.0 -1.0 -0.004947999957948923
0.028038 -0.017334 -0.256017 -0.11599999666213989 0.9921000003814697 0.04847000166773796
0.151288 0.017086 0.027063 0.013489999808371067 0.5182999968528748 0.8550999760627747
0.004168 -0.029504 0.111043 -0.0697999969124794 -0.9962000250816345 0.052560001611709595
0.150208 -0.031124 0.031723 0.014290000312030315 -0.4259999990463257 0.9046000242233276
0.197328 -0.026504 0.033693 -0.05595000088214874 -0.43639999628067017 0.8980000019073486
0.078808 -0.010274 0.035513 0.05417000129818916 0.06759999692440033 0.9962000250816345
-0.056012 0.016916 -0.072717 -0.07626999914646149 0.7465000152587891 -0.6610000133514404
0.106508 -0.022584 -0.036777 0.5562999844551086 0.503600001335144 -0.6610000133514404
-0.205542 0.032926 -0.000387 -0.1485999971628189 -0.49810001254081726 -0.8543000221252441
0.008638 -0.026254 -0.086817 -0.17100000381469727 0.9851999878883362 -0.009828999638557434
-0.006932 -0.027454 -0.061067 -0.09457000344991684 0.9955000281333923 -0.010730000212788582
0.007028 -0.026364 -0.083277 0.02920999936759472 0.9991000294685364 -0.03172000125050545
0.001798 -0.026554 -0.053777 -0.0938899964094162 0.9955000281333923 -0.010809999890625477
0.121608 -0.024644 -0.031037 0.06328000128269196 -0.004288999829441309 -0.9980000257492065
0.047578 -0.038414 -0.019527 1.2000000424450263e-05 -0.9671000242233276 -0.25429999828338623
0.075578 -0.036654 -0.027767 0.0002410000015515834 -0.9804999828338623 -0.1964000016450882
-0.036492 0.003806 0.046893 8.399999933317304e-05 -0.6915000081062317 -0.7222999930381775
0.016078 -0.023634 -0.151287 -0.24379999935626984 0.9693999886512756 0.03002000041306019
0.074338 -0.035844 -0.031807 0.010130000300705433 -0.9800999760627747 -0.19820000231266022
0.013908 -0.030624 0.082273 -0.06858000159263611 -0.9976000189781189 0.007697999943047762
0.021198 -0.031064 0.081343 -0.05902000144124031 -0.998199999332428 0.006564000155776739
-0.090842 0.009606 0.054183 -0.25540000200271606 0.9176999926567078 -0.30410000681877136
0.035228 0.003086 0.033813 -0.15790000557899475 0.19210000336170197 0.9685999751091003
-0.206492 0.065276 0.004113 -0.15620000660419464 -0.07887999713420868 0.9846000075340271
-0.094362 0.029956 0.004123 0.005913000088185072 0.1062999963760376 0.9943000078201294
-0.118462 0.026876 0.004583 -0.031550001353025436 0.9016000032424927 0.43130001425743103
-0.130362 0.036966 0.003623 0.019500000402331352 0.1590999960899353 0.9871000051498413
-0.149842 0.035896 0.003843 0.0059380000457167625 0.14589999616146088 0.989300012588501
0.259208 -0.041874 -0.010487 0.015960000455379486 -0.934499979019165 -0.35569998621940613
-0.067072 0.009436 -0.036887 0.06277000159025192 0.9976000189781189 0.029820000752806664
-0.073582 0.009166 -0.032297 -0.0568000003695488 0.9980999827384949 -0.02215000055730343
-0.088972 -0.001734 0.071263 0.1768999993801117 0.6998999714851379 -0.6919999718666077
0.213568 -0.018134 -0.032067 -1.8000000636675395e-05 0.0031129999551922083 -1.0
-0.012512 -0.008414 0.058073 0.415800005197525 -0.6712999939918518 -0.6136000156402588
0.330478 -0.014054 -0.023117 0.32910001277923584 0.4650999903678894 -0.8217999935150146
0.045818 -0.022314 -0.125047 -0.07698000222444534 0.9957000017166138 0.051750000566244125
0.033198 -0.022834 -0.133827 -0.07689999788999557 0.9957000017166138 0.052149999886751175
0.038218 -0.023534 -0.112957 -0.0769599974155426 0.9957000017166138 0.05218999832868576
0.113368 0.027806 0.001723 0.0 0.9847999811172485 0.1737000048160553
0.080028 0.027266 -0.005637 0.0 0.9915000200271606 -0.1298999935388565
0.042928 -0.017054 0.327363 -0.06404999643564224 -0.9952999949455261 0.07311999797821045
-0.200302 0.049416 -0.059097 0.004133999813348055 0.9861999750137329 0.16529999673366547
-0.201692 0.046196 -0.041957 0.059130001813173294 -0.9811999797821045 -0.18369999527931213
-0.203752 0.050806 -0.067527 0.045099999755620956 -0.9822999835014343 -0.18150000274181366
-0.208472 0.044526 -0.034577 -0.0038880000356584787 0.9861000180244446 0.1662999987602234
-0.209802 0.045446 -0.039877 0.04586999863386154 -0.9822999835014343 -0.18170000612735748
0.034088 -0.019744 0.200193 -0.09996999800205231 0.9937000274658203 -0.050289999693632126
0.028698 -0.020254 0.200283 -0.09922999888658524 0.9937000274658203 -0.05186999961733818
0.041688 -0.017374 0.232663 -0.17569999396800995 0.9832000136375427 -0.049639999866485596
0.038198 -0.019104 0.204923 -0.0963200032711029 0.9940999746322632 -0.04983000084757805
-0.197002 0.030296 -0.000757 -0.04597000032663345 -0.006341000087559223 -0.9988999962806702
0.062928 -0.031084 -0.119667 0.056710001081228256 -0.9959999918937683 -0.06838999688625336
0.061638 -0.030864 -0.123837 0.056699998676776886 -0.9959999918937683 -0.06840000301599503
0.057988 -0.017664 0.314143 0.07963000237941742 -0.9937999844551086 0.0771699994802475
-0.114332 -0.016054 0.017483 -0.21960000693798065 -0.8996999859809875 0.37720000743865967
-0.051602 -0.029714 0.021143 -0.24469999969005585 -0.8592000007629395 0.44929999113082886
-0.081282 -0.021474 0.023673 -0.2937000095844269 -0.7523999810218811 0.5895000100135803
-0.091242 -0.023094 0.013993 -0.21860000491142273 -0.9003000259399414 0.3765000104904175
0.208548 -0.005704 -0.032037 0.0001610000035725534 -0.0185100007802248 -0.9998000264167786
0.107718 -0.005454 -0.031997 -0.0002519999979995191 -0.04238000139594078 -0.9991000294685364
-0.004602 -0.026884 -0.129907 -0.1656000018119812 0.9861999750137329 0.002489000093191862
0.154108 -0.013444 0.035513 -7.999999979801942e-06 -4.3000000005122274e-05 1.0
0.056278 -0.032964 -0.092447 -0.031550001353025436 -0.9994999766349792 -0.009034999646246433
0.059928 -0.033224 -0.050317 -0.051989998668432236 -0.9986000061035156 -0.0017049999441951513
-0.163782 -0.006874 -0.007307 -0.22020000219345093 -0.9097999930381775 -0.35199999809265137
-0.084592 -0.023854 -0.012587 -0.21799999475479126 -0.9007999897003174 -0.3756999969482422
-0.184172 -0.003754 -0.002967 -0.20600000023841858 -0.9628000259399414 -0.17509999871253967
-0.072462 -0.027584 -0.010697 -0.22139999270439148 -0.9243000149726868 -0.3109000027179718
-0.149702 -0.011844 -0.003587 -0.21279999613761902 -0.9254000186920166 -0.31349998712539673
-0.205222 0.061696 0.125963 -0.0946900025010109 0.9613999724388123 -0.2581999897956848
0.015738 -0.022324 0.227723 -0.09145999699831009 -0.9927999973297119 0.07690999656915665
0.021898 -0.017404 0.298533 0.07123000174760818 0.996399998664856 -0.04676999896764755
0.019308 -0.023014 0.223023 -0.09151999652385712 -0.9927999973297119 0.07694000005722046
0.012128 -0.020474 0.247413 -0.09176000207662582 -0.9927999973297119 0.07716000080108643
-0.004612 0.006996 -0.043917 0.8482000231742859 0.5278000235557556 -0.045090001076459885
0.012178 -0.025534 0.049423 -0.035360001027584076 0.9835000038146973 0.17720000445842743
0.016218 -0.025284 0.057223 0.050269998610019684 0.9958000183105469 -0.07588999718427658
0.022858 -0.025044 0.089063 -0.07672999799251556 0.996999979019165 0.008590999990701675
0.037728 -0.007834 0.035513 -0.022709999233484268 0.007435999810695648 0.9997000098228455
0.099748 -0.024444 0.047633 0.0574599988758564 0.9797999858856201 0.19169999659061432
0.033558 -0.017214 0.251633 -0.0946199968457222 0.9943000078201294 -0.04909000173211098
0.045778 -0.018824 0.195803 0.1655000001192093 0.9848999977111816 -0.05045999959111214
0.029128 -0.019664 0.211233 -0.06928999722003937 0.9955999851226807 -0.06363999843597412
0.046398 -0.015424 0.262523 -0.09397000074386597 0.9722999930381775 -0.21410000324249268
-0.058152 -0.007574 -0.070167 -0.2092999964952469 -0.7864999771118164 -0.5810999870300293
0.079988 -0.042574 -0.003597 0.0 -1.0 -0.004947999957948923
-0.039652 0.036276 0.001723 0.11599999666213989 0.4124000072479248 -0.9035999774932861
0.034428 -0.012964 0.335013 -0.31310001015663147 0.9491999745368958 -0.03130999952554703
0.138568 -0.007124 -0.032067 0.0005239999736659229 -0.0516900010406971 -0.9987000226974487
0.017368 -0.021914 -0.231507 -0.092009998857975 -0.9926999807357788 -0.07742000371217728
0.014968 -0.020684 -0.244567 -0.09068000316619873 -0.992900013923645 -0.07692000269889832
0.019188 -0.024044 -0.206247 -0.09096000343561172 -0.992900013923645 -0.07705000042915344
0.012128 -0.020234 -0.247117 -0.09538999944925308 -0.9925000071525574 -0.07684999704360962
-0.013912 -0.028704 -0.067647 -0.11420000344514847 0.9916999936103821 -0.05954999849200249
-0.016022 0.016916 0.052323 0.096220001578331 0.3228999972343445 -0.9415000081062317
0.070818 -0.027404 0.170623 0.18639999628067017 -0.9793999791145325 0.07790999859571457
0.064068 -0.029524 0.144813 0.056759998202323914 -0.9959999918937683 0.06852000206708908
0.075038 -0.029754 0.132503 0.29350000619888306 -0.9538000226020813 0.06469999998807907
0.252668 -0.059084 0.005393 -0.31779998540878296 0.24240000545978546 0.9165999889373779
0.063268 0.011606 -0.027187 1.4000000192027073e-05 0.3725999891757965 -0.9279999732971191
-0.071122 0.002006 -0.064867 -0.9998999834060669 0.010590000078082085 0.010830000042915344
-0.038392 0.027906 0.003843 0.10429999977350235 0.6039999723434448 0.7900999784469604
0.271268 -0.054274 0.001003 0.7318999767303467 -0.010219999589025974 0.6812999844551086
0.229088 -0.042574 0.003773 0.0 -1.0 0.0
0.138678 -0.042574 0.010373 0.0 -1.0 0.004929000046104193
-0.245342 0.034606 0.001283 -0.23600000143051147 0.036720000207424164 0.9710999727249146
-0.031602 -0.014774 0.060423 0.09912999719381332 -0.9047999978065491 -0.4142000079154968
0.026298 0.011046 -0.027447 -0.01116000022739172 0.5461000204086304 -0.8377000093460083
0.004598 0.014116 -0.025157 -0.011189999990165234 0.545799970626831 -0.8378000259399414
0.007788 -0.030144 0.090063 -0.09481000155210495 0.9954000115394592 0.009758999571204185
-0.245402 0.137036 0.001193 0.16169999539852142 0.24120000004768372 0.9569000005722046
-0.079302 0.012316 -0.071717 -0.14149999618530273 0.6248000264167786 -0.767799973487854
0.014498 -0.030694 0.076633 -0.062950000166893 -0.9980000257492065 0.0069519998505711555
0.017728 -0.030944 0.068353 -0.061739999800920486 -0.9980999827384949 0.006961999926716089
-0.232322 0.045636 0.045113 -0.08659999817609787 -0.978600025177002 0.1868000030517578
-0.223052 0.056886 0.096953 -0.018559999763965607 0.9815000295639038 -0.19030000269412994
-0.220132 0.057246 0.098713 -0.0048940000124275684 0.9887999892234802 -0.14949999749660492
-0.008402 -0.007434 0.065063 0.48429998755455017 0.8565999865531921 0.1777999997138977
0.316028 -0.008314 -0.022127 0.298799991607666 0.8730999827384949 -0.38530001044273376
-0.072922 0.016756 0.073603 -0.2281000018119812 0.7253000140190125 0.6495000123977661
0.298408 -0.004134 -0.021437 0.16220000386238098 0.944100022315979 -0.28700000047683716
-0.015252 0.025976 -0.008367 -0.020099999383091927 0.9839000105857849 -0.17739999294281006
0.020818 0.026286 -0.009657 0.03480999916791916 0.8781999945640564 -0.4771000146865845
0.049218 0.010356 0.031453 0.02790999971330166 0.531499981880188 0.8465999960899353
-0.206852 0.093706 0.001723 0.10580000281333923 0.1031000018119812 -0.9890000224113464
-0.200702 0.084946 0.001723 0.09604000300168991 0.09324000030755997 0.9909999966621399
-0.233772 0.049006 0.055043 -0.12460000067949295 0.9793000221252441 -0.15960000455379486
-0.244632 0.040896 0.013873 -0.5058000087738037 0.6240000128746033 -0.5956000089645386
-0.228842 0.051806 0.068313 -0.11299999803304672 0.980400025844574 -0.16130000352859497
-0.173472 0.026606 0.005243 0.009724999777972698 -0.025629999116063118 0.9995999932289124
-0.185562 0.033126 0.004753 -0.12919999659061432 -0.05150999873876572 0.9902999997138977
-0.242502 0.097486 0.001723 -0.02986999973654747 -0.006527000106871128 -0.9994999766349792
-0.235132 0.028816 0.001723 -0.045899998396635056 -0.018400000408291817 -0.9987999796867371
-0.208522 0.050326 0.001723 -0.0458500012755394 -0.00980400014668703 -0.9988999962806702
-0.232842 0.108546 0.001723 0.010879999957978725 -0.0005200000014156103 -0.9998999834060669
-0.209602 0.064266 0.001723 -0.04554999992251396 -0.010579999536275864 0.9988999962806702
-0.245432 0.020506 0.001723 -0.07610999792814255 -0.03412000089883804 -0.9965000152587891
-0.243342 0.070286 0.001723 0.00954699981957674 0.012679999694228172 0.9998999834060669
-0.241172 0.053386 0.001723 -0.04774000123143196 -0.01939000003039837 -0.9987000226974487
-0.207022 0.056086 0.001723 -0.045830000191926956 -0.00977300014346838 -0.9988999962806702
0.030758 -0.056654 0.109593 0.0794999971985817 0.003515999997034669 0.9968000054359436
0.279838 -0.043964 0.009473 0.0 -0.3474999964237213 -0.9376999735832214
0.311178 -0.023094 0.029953 0.08980000019073486 -0.164900004863739 0.982200026512146
-0.026752 0.004296 -0.077717 0.032710000872612 -0.0006300000241026282 -0.9994999766349792
0.036198 -0.044734 0.108453 0.08708000183105469 0.017100000753998756 0.9961000084877014
0.001388 -0.026404 0.128193 0.05090999975800514 0.9947999715805054 -0.08828999847173691
0.010738 -0.024084 0.157823 -0.11010000109672546 0.9929999709129333 -0.04210999980568886
0.000218 -0.026944 0.118783 -0.1062999963760376 0.993399977684021 -0.04343000054359436
0.048288 -0.040264 -0.104547 0.006725000217556953 0.09661000221967697 -0.9952999949455261
0.034888 -0.031714 -0.102397 -0.02443999983370304 -0.23999999463558197 0.9704999923706055
0.064658 -0.015324 0.309413 0.4860999882221222 0.8737000226974487 -0.01850000023841858
0.067698 -0.017954 0.247963 0.32010000944137573 0.9473000168800354 -0.013910000212490559
-0.275062 0.112576 0.001173 -0.05017999932169914 -0.021159999072551727 -0.9984999895095825
-0.269202 0.098796 0.001173 -0.04862000048160553 -0.020179999992251396 0.9986000061035156
-0.212712 0.060066 -0.111247 0.024469999596476555 -0.9825999736785889 -0.18410000205039978
-0.210682 0.060796 -0.115347 0.049550000578165054 0.9898999929428101 0.13269999623298645
-0.014162 0.006396 -0.077007 0.18410000205039978 -0.24449999630451202 -0.9520000219345093
0.055368 -0.029404 0.153823 0.04456000030040741 -0.9966999888420105 0.06748999655246735
0.064628 -0.031824 0.110883 0.0566600002348423 -0.9961000084877014 0.068340003490448
0.342258 -0.017944 -0.019497 0.41339999437332153 0.2806999981403351 -0.8661999702453613
0.071958 -0.021784 -0.172637 0.6639000177383423 0.7477999925613403 0.0057299998588860035
0.067408 -0.022374 -0.148127 0.24580000340938568 0.9684000015258789 -0.042729999870061874
-0.014422 -0.005304 0.067603 0.48429998755455017 0.8565999865531921 0.1777999997138977
0.066338 -0.023344 -0.120747 0.08752000331878662 0.9955000281333923 0.03723999857902527
0.285268 -0.022944 0.032683 0.0078050000593066216 -0.4083000123500824 0.9128000140190125
-0.216922 0.051786 -0.061897 -0.06235000118613243 0.9911999702453613 0.1168999969959259
-0.194632 0.042416 -0.005697 -0.021929999813437462 0.7267000079154968 -0.6866000294685364
-0.217512 0.046906 -0.032897 -0.003949999809265137 0.986299991607666 0.16519999504089355
-0.199712 0.048926 -0.044517 0.016790000721812248 0.9861000180244446 0.16519999504089355
-0.209582 0.056106 -0.087407 0.044849999248981476 -0.9825999736785889 -0.18000000715255737
0.017988 -0.020144 -0.224657 -0.12919999659061432 0.9904999732971191 0.04627000167965889
0.012038 -0.021594 -0.209017 -0.12219999730587006 0.9915000200271606 0.04552999883890152
0.020928 -0.016564 -0.294697 -0.1290999948978424 -0.9883000254631042 -0.0806799978017807
0.107778 -0.032204 -0.037047 0.15459999442100525 -0.9340999722480774 -0.32170000672340393
0.037528 -0.063824 0.102443 -0.23430000245571136 -0.19869999587535858 0.9516000151634216
-0.216582 0.016416 -0.002807 -0.0919099971652031 0.4372999966144562 -0.894599974155426
0.324788 -0.036124 -0.013707 0.15539999306201935 -0.8359000086784363 -0.5264999866485596
0.016708 -0.040104 0.015503 -0.07467000186443329 -0.9205999970436096 0.38339999318122864
-0.014472 -0.037744 0.015103 -0.07423999905586243 -0.942799985408783 0.3249000012874603
0.356488 -0.016664 0.000343 0.5967000126838684 0.7825999855995178 -0.17739999294281006
0.256448 -0.053424 0.003563 0.20469999313354492 0.3702000081539154 0.9060999751091003
-0.115252 0.006976 -0.025767 -0.11590000241994858 0.992900013923645 -0.028289999812841415
0.066438 -0.032784 -0.084767 0.056790001690387726 -0.9975000023841858 -0.04270000010728836
0.053148 -0.016924 0.327953 0.05649999901652336 -0.9957000017166138 0.07312999665737152
0.029558 -0.056164 -0.106107 0.002601000014692545 0.0948600023984909 -0.9955000281333923
0.061158 -0.016754 -0.319837 0.16429999470710754 -0.9836000204086304 -0.07395999878644943
-0.066392 -0.006164 -0.027227 -0.14990000426769257 0.07269000262022018 -0.9860000014305115
-0.050032 -0.013254 -0.064477 -0.17630000412464142 -0.9246000051498413 -0.3375999927520752
0.062268 -0.017384 0.248563 0.0033489998895674944 0.9955000281333923 -0.09467999637126923
0.064978 -0.016994 0.258313 0.06437999755144119 0.9959999918937683 -0.062130000442266464
0.000218 -0.000034 -0.071997 0.3192000091075897 -0.329800009727478 -0.8884999752044678
0.250378 0.005266 0.025133 0.1670999974012375 0.628600001335144 0.7595999836921692
-0.152242 -0.011334 -0.000387 -0.21410000324249268 -0.9767000079154968 -0.016340000554919243
-0.140492 -0.013914 -0.003617 -0.21639999747276306 -0.9753000140190125 -0.044780001044273376
-0.172432 -0.006894 0.001513 -0.2353000044822693 -0.9495999813079834 -0.2070000022649765
-0.167942 -0.007874 -0.001197 -0.2353000044822693 -0.9495999813079834 -0.2070000022649765
-0.128702 -0.016504 0.000573 -0.2143000066280365 -0.9768000245094299 -5.6000000768108293e-05
-0.008142 0.012636 -0.049497 -0.00013899999612476677 -0.3400999903678894 -0.9404000043869019
-0.284492 0.133776 0.002243 -0.16110000014305115 0.034630000591278076 0.986299991607666
-0.258462 0.093886 0.002713 -0.04479999840259552 -0.019419999793171883 0.9987999796867371
0.073978 -0.033874 0.052763 0.06859999895095825 -0.9968000054359436 0.04104999825358391
0.001288 0.016516 -0.070997 -0.23919999599456787 -0.6987000107765198 0.6743000149726868
0.207108 0.017016 -0.023667 0.0 0.5453000068664551 -0.8381999731063843
-0.014422 0.005736 0.059083 0.9524000287055969 -0.08174999803304672 0.2937000095844269
0.236938 0.021576 0.003993 0.5044999718666077 0.862500011920929 0.03976000100374222
0.068418 -0.024484 -0.209747 0.2190999984741211 -0.9728999733924866 -0.0737999975681305
0.049308 -0.016674 -0.330947 0.05651000142097473 -0.9957000017166138 -0.07315000146627426
0.081928 -0.024304 -0.081647 0.12380000203847885 0.9909999966621399 -0.050439998507499695
0.191698 -0.040254 0.018553 0.0 -0.9235000014305115 0.38350000977516174
0.174858 -0.041764 0.014923 0.0 -0.980400025844574 0.19699999690055847
0.167998 -0.038184 0.023513 -3.400000059627928e-05 -0.9229000210762024 0.38499999046325684
0.154638 -0.042324 0.013593 0.0 -0.92330002784729 0.3840000033378601
-0.082442 0.008546 0.041193 -0.05583000183105469 0.998199999332428 0.02037999965250492
-0.069552 0.009116 0.049313 0.09545999765396118 0.9824000000953674 -0.16040000319480896
-0.223242 0.060626 0.126403 -0.0037789999041706324 -0.9825999736785889 0.1859000027179718
-0.176822 0.015966 0.011023 -0.148499995470047 0.3799000084400177 0.9129999876022339
0.010498 -0.027394 -0.148807 -0.07337000221014023 -0.9952999949455261 -0.062780000269413
-0.001272 -0.028374 -0.119717 -0.07064999639987946 -0.9955999851226807 -0.06182999908924103
-0.276872 0.108986 0.001343 -0.049570001661777496 -0.02078999951481819 -0.9986000061035156
-0.097382 -0.023394 0.002523 -0.2151000052690506 -0.9765999913215637 -3.400000059627928e-05
-0.104332 -0.021864 0.002783 -0.2160000056028366 -0.9764000177383423 -7.599999662488699e-05
-0.040452 -0.035914 0.003503 -0.21459999680519104 -0.9767000079154968 0.0
-0.151962 -0.011394 0.005363 -0.25189998745918274 -0.9419999718666077 0.22179999947547913
0.029138 -0.031444 0.093983 -0.05900000035762787 -0.998199999332428 0.0065310001373291016
-0.026142 0.022996 -0.061997 -0.09237000346183777 0.9107000231742859 -0.4027000069618225
0.058268 -0.011854 -0.348207 0.09421999752521515 0.9951000213623047 0.030249999836087227
-0.027332 0.021656 -0.057647 -0.06677000224590302 0.8817999958992004 0.4668000042438507
-0.065132 0.014446 0.076163 0.11460000276565552 0.6798999905586243 0.7243000268936157
-0.239122 0.048276 0.055903 -0.06466999650001526 0.983299970626831 -0.17010000348091125
0.094958 -0.033624 -0.036747 0.0895100012421608 -0.9745000004768372 -0.20559999346733093
-0.114912 0.013456 0.019613 -0.09320999681949615 0.6236000061035156 0.776199996471405
0.017298 -0.009244 0.035513 -0.0001320000010309741 0.019430000334978104 0.9998000264167786
0.085528 0.025756 -0.012127 0.0 0.9757000207901001 -0.21930000185966492
0.034718 -0.050744 -0.098997 -0.3465999960899353 0.07761000096797943 -0.9348000288009644
0.005918 -0.028604 -0.124127 -0.07066000252962112 -0.9955999851226807 -0.06185999885201454
0.011298 -0.029894 -0.109507 -0.07026000320911407 -0.9955999851226807 -0.061769999563694
-0.227072 0.059656 0.003113 -0.04586999863386154 -0.009796000085771084 0.9988999962806702
-0.088122 -0.020804 -0.017847 -0.21860000491142273 -0.8912000060081482 -0.39750000834465027
-0.089162 -0.023934 -0.009757 -0.22120000422000885 -0.9031000137329102 -0.36809998750686646
-0.088262 0.009126 -0.071277 -0.5519999861717224 -0.22390000522136688 0.8032000064849854
0.035438 -0.014354 -0.298127 -0.08851999789476395 0.9961000084877014 -0.006467000115662813
0.035658 -0.021824 0.256073 -0.0643400028347969 -0.9952999949455261 0.07214000076055527
0.029748 -0.022904 0.236133 -0.06842999905347824 -0.9948999881744385 0.07344000041484833
0.047188 -0.014374 -0.358457 -0.027070000767707825 -0.7085000276565552 -0.7050999999046326
-0.216892 0.081556 -0.000347 -0.050119999796152115 -0.00976600032299757 -0.9987000226974487
-0.192402 0.032236 -0.000987 -0.04586999863386154 -0.006643000058829784 -0.9988999962806702
-0.156272 0.051486 0.002213 0.026890000328421593 0.4025999903678894 0.9150000214576721
0.065238 -0.015704 -0.301247 0.6348000168800354 -0.7646999955177307 -0.11089999973773956
0.226978 -0.042574 0.009103 0.0 -1.0 0.004929000046104193
0.210488 0.022986 0.021483 -0.004414999857544899 0.8996999859809875 0.43650001287460327
-0.290152 0.124536 0.001723 -0.8317999839782715 -0.3700000047683716 0.41370001435279846
-0.274652 0.134596 0.001723 -0.04095999896526337 -0.0173799991607666 -0.9990000128746033
-0.258752 0.088226 0.002573 -0.04981999844312668 -0.02092999964952469 0.9984999895095825
0.006438 -0.026914 0.154913 -0.28630000352859497 0.9577999711036682 -0.02517000027000904
0.071838 -0.023424 -0.212707 0.2190999984741211 -0.9728999733924866 -0.0737999975681305
-0.071122 -0.006304 -0.056097 -0.17309999465942383 -0.8036999702453613 0.5692999958992004
0.040038 -0.032044 -0.097427 -0.15839999914169312 -0.4505999982357025 0.878600001335144
0.033298 -0.053284 0.096683 -0.0008629999938420951 0.07535000145435333 -0.9972000122070312
-0.234062 0.038946 -0.005867 -0.14669999480247498 0.9886000156402588 0.03530000150203705
0.048688 -0.009094 0.035513 7.699999696342275e-05 -0.06988000124692917 0.9976000189781189
0.043758 -0.026904 -0.190947 -0.06543999910354614 -0.995199978351593 -0.07336000353097916
0.044048 -0.027564 -0.182287 -0.06576000154018402 -0.9958000183105469 -0.0640999972820282
0.040158 -0.023254 -0.237287 -0.06544999778270721 -0.995199978351593 -0.07332000136375427
0.032328 -0.022674 -0.238137 -0.06521999835968018 -0.995199978351593 -0.07332000136375427
0.044008 -0.023334 -0.239667 -0.06544999778270721 -0.995199978351593 -0.07332000136375427
0.043058 -0.018764 -0.300847 -0.06483999639749527 -0.995199978351593 -0.07339999824762344
-0.208882 0.047096 0.052063 0.04563000053167343 -0.9824000000953674 0.1809999942779541
-0.217152 0.043386 0.034003 0.04544999822974205 -0.9824000000953674 0.18119999766349792
-0.202862 0.048686 0.059213 0.045180000364780426 -0.9825999736785889 0.18019999563694
-0.212942 0.049376 0.065463 0.0456399992108345 -0.9824000000953674 0.18140000104904175
-0.211942 0.047406 0.054553 0.04535999894142151 -0.9824000000953674 0.1808999925851822
-0.213212 0.041376 0.022063 0.04527999833226204 -0.9822999835014343 0.18150000274181366
0.112038 -0.037794 -0.020997 0.0040420000441372395 -0.9230999946594238 -0.38449999690055847
-0.023692 -0.009484 -0.072097 0.08642999827861786 -0.7067999839782715 -0.7020999789237976
0.029798 0.004586 -0.029917 -0.006391999777406454 0.27239999175071716 -0.9621999859809875
-0.015912 0.019676 -0.069207 0.10930000245571136 0.9275000095367432 -0.35740000009536743
-0.155122 0.013666 0.014963 -0.06239999830722809 0.570900022983551 0.8185999989509583
-0.027532 0.025896 -0.006887 -0.020330000668764114 0.9943000078201294 -0.10450000315904617
0.045328 -0.040684 0.017523 0.0 -0.9233999848365784 0.3837999999523163
-0.002192 -0.037334 -0.015017 -0.07446999847888947 -0.9207000136375427 -0.3831999897956848
0.037558 -0.032014 0.077813 -0.046470001339912415 -0.9988999962806702 0.0017059999518096447
-0.057722 0.019286 0.059313 -0.06815999746322632 0.916700005531311 -0.3937999904155731
-0.227732 0.050436 -0.055627 -0.1476999968290329 0.9814000129699707 0.12300000339746475
-0.229142 0.045536 -0.026727 -0.08872999995946884 0.9851999878883362 0.1467999964952469
0.046168 0.021996 0.022593 0.0 0.6773999929428101 0.7355999946594238
-0.098052 0.020096 -0.012687 -0.0752900019288063 0.727400004863739 -0.6820999979972839
-0.036662 0.020006 -0.019687 -0.12120000272989273 0.7807999849319458 -0.6129000186920166
0.051008 -0.020824 0.155543 0.08715999871492386 0.9955000281333923 -0.03733000159263611
-0.110562 0.006326 0.039313 -0.056439999490976334 -0.9983000159263611 0.015939999371767044
-0.091712 0.005346 0.044703 -0.08290000259876251 0.8116000294685364 0.5782999992370605
-0.220172 0.109966 0.002013 0.6620000004768372 0.6370000243186951 -0.39500001072883606
-0.004842 0.000936 0.076383 0.1543000042438507 -0.4034000039100647 0.9018999934196472
0.254968 0.006796 0.018873 0.46160000562667847 0.8075000047683716 0.36730000376701355
0.022188 0.027656 0.001723 0.07037000358104706 0.8050000071525574 0.5892000198364258
-0.011452 -0.030604 0.035993 -0.11940000206232071 -0.9853000044822693 0.12219999730587006
-0.071122 -0.002024 -0.060347 -0.9998999834060669 0.010590000078082085 0.010830000042915344
0.068048 -0.022014 -0.045167 -0.06265000253915787 0.9980000257492065 0.0016799999866634607
0.017508 -0.025194 -0.043077 -0.024639999493956566 0.9988999962806702 -0.03971000015735626
0.053078 -0.022934 -0.061557 -0.0626399964094162 0.9980000257492065 0.0015979999443516135
0.057968 -0.022624 -0.059867 -0.0626399964094162 0.9980000257492065 0.0015979999443516135
0.054108 -0.022804 -0.098457 0.16689999401569366 0.9815000295639038 -0.09348999708890915
0.041068 -0.023654 -0.077197 -0.01370999962091446 0.9984999895095825 0.052639998495578766
-0.070022 -0.003104 0.075073 -0.09432999789714813 -0.4571000039577484 0.8844000101089478
0.051458 -0.016814 -0.238907 0.08258000016212463 0.9952999949455261 0.05059000104665756
0.047888 -0.017234 -0.224887 0.0019030000548809767 0.9987000226974487 0.05019000172615051
0.064518 -0.019614 -0.205247 0.07805000245571136 0.9955999851226807 0.0514799989759922
0.048058 -0.014534 -0.278197 -0.09820999950170517 0.9922000169754028 0.07656999677419662
0.048698 -0.016374 -0.243077 -0.03167999908328056 0.9968000054359436 0.0730699971318245
-0.095642 0.007706 -0.042907 -0.08309999853372574 -0.8166999816894531 -0.5709999799728394
0.095328 -0.025024 0.068313 0.37700000405311584 0.9135000109672546 0.15289999544620514
0.106388 -0.017654 0.035513 0.001643999945372343 0.1306000053882599 0.9914000034332275
-0.114022 0.022096 -0.006587 0.0028729999903589487 0.901199996471405 -0.4334999918937683
0.007198 -0.026004 0.053193 -0.24789999425411224 0.9686999917030334 0.008870000019669533
-0.092372 0.005206 -0.022067 -0.07897000014781952 0.7592999935150146 -0.6460000276565552
-0.076312 0.017546 0.021293 -0.09427999705076218 0.5422000288963318 0.8349000215530396
-0.141662 0.015886 0.015023 -0.12530000507831573 0.6015999913215637 0.7889000177383423
-0.051542 0.015176 0.025623 -0.09330999851226807 0.5440000295639038 0.833899974822998
-0.002902 -0.001914 0.075633 0.2574999928474426 -0.43630000948905945 0.8622000217437744
0.072528 -0.021744 0.045163 -0.10779999941587448 0.9564999938011169 0.2709999978542328
0.056048 -0.022724 0.074713 -0.01875999942421913 0.9958000183105469 -0.08968999981880188
0.018978 -0.025104 0.045133 -0.022220000624656677 0.9544000029563904 0.29760000109672546
0.012978 -0.025474 0.045133 -0.035360001027584076 0.9835000038146973 0.17720000445842743
0.043358 -0.023504 0.088743 -0.06262999773025513 0.9980000257492065 -0.0015899999998509884
0.045158 -0.023424 0.065923 0.007222999818623066 0.9836000204086304 -0.18000000715255737
0.063558 -0.025074 -0.205357 0.05544000118970871 -0.9958000183105469 -0.07298000156879425
0.050988 -0.018474 -0.305027 0.055229999125003815 -0.9958000183105469 -0.07295999675989151
0.056088 -0.026184 -0.195897 0.05521000176668167 -0.9958000183105469 -0.07298000156879425
0.043828 -0.066844 -0.094217 0.6848999857902527 -0.680400013923645 0.260699987411499
-0.087612 0.018476 -0.015687 -0.05073000118136406 0.7976999878883362 -0.6008999943733215
-0.064382 0.019536 -0.017097 -0.08169999718666077 0.847100019454956 -0.5249999761581421
0.267998 -0.034634 -0.025607 0.04972999915480614 -0.8041999936103821 -0.592199981212616
0.036758 -0.034604 0.035563 -0.04901999980211258 -0.954200029373169 0.29499998688697815
-0.001352 -0.029644 0.070963 -0.06975000351667404 -0.9975000023841858 0.007763999979943037
0.008558 -0.030504 0.050263 -0.0643099993467331 -0.9976999759674072 0.023499999195337296
-0.060142 0.009466 -0.045777 -0.0647599995136261 0.9143000245094299 0.39980000257492065
-0.272532 0.087816 0.001723 -0.05875999853014946 -0.019460000097751617 -0.9980999827384949
0.252668 -0.003914 -0.030137 0.06778000295162201 0.7081000208854675 -0.7027999758720398
0.001458 -0.002724 0.058423 0.6450999975204468 -0.7113000154495239 -0.2791999876499176
-0.016402 -0.037484 -0.011927 -0.07355000078678131 -0.9200999736785889 -0.3847000002861023
0.034078 -0.042004 -0.010847 -0.027739999815821648 -0.9803000092506409 -0.19539999961853027
0.214338 0.008306 -0.028887 -7.000000096013537e-06 0.532800018787384 -0.8461999893188477
-0.226312 0.048696 -0.060167 -0.018230000510811806 -0.9825000166893005 -0.18539999425411224
-0.224182 0.057416 -0.106057 -0.016090000048279762 -0.9824000000953674 -0.1858000010251999
0.117488 0.019066 0.025773 0.04140999913215637 0.46860000491142273 0.8823999762535095
0.145468 -0.034194 -0.026967 -7.999999979801942e-06 -0.917900025844574 -0.3968999981880188
0.046318 -0.001024 0.034873 1.1000000085914508e-05 0.08861999958753586 0.9961000084877014
-0.027212 0.014646 -0.024387 -0.011140000075101852 0.5461000204086304 -0.8375999927520752
0.115978 -0.028404 0.040403 0.3801000118255615 -0.8047000169754028 0.4560000002384186
-0.020702 0.018416 0.076353 -0.03706999868154526 0.33230000734329224 0.9423999786376953
0.327388 -0.006564 0.013273 0.24130000174045563 0.9506000280380249 0.19509999454021454
0.026698 0.027556 0.002953 0.04114000126719475 0.9438999891281128 0.3276999890804291
0.020568 -0.025364 -0.101467 -0.007019000127911568 0.9975000023841858 0.0704599991440773
0.031648 -0.024334 -0.081527 -0.07628999650478363 0.996999979019165 -0.00848000030964613
0.034398 -0.024284 -0.101107 -0.18289999663829803 0.9830999970436096 -0.009251999668776989
-0.151872 0.003956 0.017073 -0.20180000364780426 -0.14390000700950623 0.9688000082969666
0.099598 -0.013424 -0.032067 0.016200000420212746 0.12800000607967377 -0.991599977016449
0.322318 -0.041054 0.003743 0.07332000136375427 -0.9973000288009644 -0.004796000197529793
-0.092202 -0.001644 0.061153 0.0721300020813942 0.920799970626831 0.38339999318122864
0.118388 0.020406 -0.020947 0.0 0.7483000159263611 -0.6633999943733215
0.072018 0.014646 0.028653 0.013500000350177288 0.4724000096321106 0.8812999725341797
0.169038 -0.019274 0.035513 -7.999999979801942e-06 -0.01744000054895878 0.9998000264167786
-0.054462 -0.011444 0.069583 -0.22339999675750732 -0.8514999747276306 0.47440001368522644
0.272708 -0.015874 -0.030317 0.06125999987125397 2.5999999706982635e-05 -0.9980999827384949
0.177978 0.027446 0.006623 -0.014720000326633453 0.9765999913215637 0.21439999341964722
0.143988 0.027266 0.009083 -1.2000000424450263e-05 0.9998000264167786 0.01964000053703785
0.081198 -0.032724 -0.062997 0.09398999810218811 -0.994700014591217 -0.04171000048518181
0.087448 -0.032774 -0.047597 0.09398999810218811 -0.994700014591217 -0.04171000048518181
0.078608 -0.031814 -0.090437 0.08557000011205673 -0.995199978351593 -0.047200001776218414
0.053288 -0.020034 0.181183 0.1679999977350235 0.9793999791145325 -0.11159999668598175
-0.029532 0.003816 -0.037357 -0.023499999195337296 -0.9858999848365784 0.16580000519752502
-0.143902 -0.008364 0.016043 -0.08560000360012054 -0.7121999859809875 0.6966999769210815
-0.158392 -0.005944 0.013993 -0.2402999997138977 -0.5526999831199646 0.7979999780654907
0.202578 0.024076 -0.016807 0.012880000285804272 0.9502999782562256 -0.31119999289512634
0.241868 -0.010464 0.035513 0.001016999944113195 0.012740000151097775 0.9998999834060669
-0.233062 0.024446 0.001723 -0.08753000199794769 0.020999999716877937 0.9958999752998352
-0.231262 0.100606 0.001723 -0.045820001512765884 -0.009770000353455544 -0.9988999962806702
-0.242812 0.132556 0.001723 0.14059999585151672 0.11840000003576279 0.9829999804496765
-0.236792 0.039826 0.001723 -0.045820001512765884 -0.01850000023841858 -0.9987999796867371
-0.187282 0.048166 0.001723 0.0024949999060481787 0.01875000074505806 0.9998000264167786
-0.233082 0.056556 0.001723 0.08832000195980072 0.05319000035524368 0.994700014591217
-0.220972 0.068646 0.001723 -0.08529999852180481 -0.009316000156104565 0.9962999820709229
-0.226662 0.077336 0.001723 -0.05556999891996384 -0.04137999936938286 0.9976000189781189
0.048418 -0.019584 -0.178947 -0.06601999700069427 0.992900013923645 0.09870000183582306
0.071918 -0.023494 -0.129307 0.1664000004529953 0.9850000143051147 -0.044679999351501465
0.068388 -0.021974 -0.160307 0.0814799964427948 0.9966999888420105 -0.0005249999812804163
0.009378 -0.023694 0.171873 -0.24210000038146973 0.9695000052452087 0.039009999483823776
-0.124312 0.031576 0.001723 0.0006980000180192292 0.18150000274181366 0.9833999872207642
-0.113922 0.029586 0.001723 0.005940000060945749 0.1023000031709671 -0.994700014591217
-0.141792 0.023276 0.001723 -0.016829999163746834 0.5164999961853027 0.8561000227928162
-0.159372 0.029886 0.001723 0.005911999847739935 0.1023000031709671 -0.994700014591217
-0.059852 0.009486 0.041463 -0.006008000113070011 1.0 0.00457199988886714
0.014848 -0.024934 -0.189647 -0.090829998254776 -0.992900013923645 -0.0771000012755394
-0.172272 0.008106 0.013833 -0.1298000067472458 -0.012360000051558018 0.9915000200271606
0.024998 -0.023894 0.042353 0.04554000124335289 0.8296999931335449 0.5562999844551086
0.064228 -0.022014 0.043443 -0.08025000244379044 0.9690999984741211 0.23309999704360962
0.127608 -0.042414 -0.009917 0.0 -0.92330002784729 -0.3840000033378601
0.062498 -0.028074 0.167443 0.05544000118970871 -0.9962000250816345 0.06772000342607498
-0.042642 0.000516 0.033283 -0.2953999936580658 0.24789999425411224 0.9226999878883362
0.038898 -0.048304 -0.105337 0.13699999451637268 -0.18479999899864197 0.9732000231742859
0.254208 0.010436 -0.002767 0.5485000014305115 0.832099974155426 -0.0824500024318695
-0.011852 0.015906 0.075653 0.36660000681877136 -0.5482000112533569 -0.7516999840736389
0.066058 -0.016044 -0.307917 0.7075999975204468 -0.6812000274658203 -0.18790000677108765
-0.104372 0.036226 0.001723 0.0074269999749958515 0.12309999763965607 -0.9923999905586243
-0.075622 0.028246 0.001723 -0.0025649999734014273 0.36329999566078186 0.9316999912261963
-0.133392 0.030896 0.001723 0.005923000164330006 0.1023000031709671 0.994700014591217
-0.121322 0.034766 0.001723 0.0006980000180192292 0.18150000274181366 0.9833999872207642
0.329218 -0.036234 -0.012267 0.15539999306201935 -0.8359000086784363 -0.5264999866485596
0.212328 -0.010554 0.035513 -0.0004239999980200082 0.042100001126527786 0.9991000294685364
0.041088 -0.068344 -0.095997 0.5748999714851379 -0.8179000020027161 0.021040000021457672
-0.084752 0.001576 0.074353 -0.12330000102519989 -0.777899980545044 0.6161999702453613
0.015768 0.017676 -0.022987 -0.014150000177323818 0.6819000244140625 -0.7312999963760376
0.031208 0.011626 -0.027137 -0.010470000095665455 0.5461000204086304 -0.8375999927520752
0.054248 -0.015024 -0.347457 0.04741000011563301 -0.9955000281333923 -0.08151999861001968
0.332068 -0.034854 0.016923 0.18790000677108765 -0.8291000127792358 0.5264999866485596
0.054688 -0.015424 0.345743 0.051430001854896545 -0.995199978351593 0.0830100029706955
-0.142292 0.030066 0.004403 0.005942000076174736 0.1023000031709671 0.994700014591217
-0.113742 0.037276 0.003493 0.0026179999113082886 0.26260000467300415 0.964900016784668
0.227468 0.024326 0.016413 0.5202999711036682 0.8252999782562256 0.21930000185966492
-0.237362 0.056246 -0.095667 -0.0790100023150444 0.9810000061988831 0.17710000276565552
0.031608 -0.018134 -0.032067 -0.033149998635053635 0.41429999470710754 -0.909500002861023
0.057308 -0.027464 -0.177197 0.05468999966979027 -0.9962000250816345 -0.0674000009894371
-0.014422 0.004006 -0.069637 0.9843000173568726 0.03468000143766403 0.17329999804496765
-0.033902 -0.008454 0.052343 0.02469000034034252 -0.6966999769210815 -0.7170000076293945
0.036238 -0.013154 0.325183 -0.1371999979019165 0.9894999861717224 -0.04562000185251236
0.031808 -0.013714 0.326873 -0.30559998750686646 0.9510999917984009 -0.04458000138401985
0.118398 0.012396 0.030123 0.04140999913215637 0.46860000491142273 0.8823999762535095
-0.037632 0.006706 -0.028727 -0.08538000285625458 0.745199978351593 -0.661300003528595
-0.106132 0.009966 -0.018937 -0.1363999992609024 0.5123000144958496 -0.8478999733924866
-0.052662 0.008116 -0.026377 -0.07513999938964844 0.9872000217437744 -0.14090000092983246
-0.225142 0.049436 0.003093 0.0435900017619133 0.03274000063538551 0.9984999895095825
0.099438 -0.042574 0.007023 0.0 -1.0 0.0
-0.026042 0.021616 -0.065057 -0.09237000346183777 0.9107000231742859 -0.4027000069618225
0.090578 -0.020604 0.039943 0.20589999854564667 0.8560000061988831 0.4742000102996826
0.043888 -0.061414 -0.101267 0.5802000164985657 -0.4156999886035919 -0.7003999948501587
0.047198 -0.061924 0.098033 0.9261999726295471 -0.37599998712539673 0.028230000287294388
0.136428 -0.035084 0.030033 0.00025099999038502574 -0.9045000076293945 0.42640000581741333
0.274098 -0.042574 0.001893 0.27219998836517334 -0.958299994468689 -0.08709999918937683
0.062378 -0.018644 -0.293957 0.21150000393390656 0.9750000238418579 0.06819000095129013
-0.094212 0.006776 0.051113 -0.11779999732971191 0.16920000314712524 -0.9785000085830688
0.211408 -0.011084 -0.032067 1.9999999949504854e-06 2.099999983329326e-05 -1.0
0.054078 -0.011384 0.360313 0.039500001817941666 0.97079998254776 0.23680000007152557
0.031448 -0.063724 -0.093357 0.02897999994456768 -0.09116999804973602 0.9954000115394592
-0.181732 0.060386 0.000433 0.10540000349283218 0.10189999639987946 -0.9891999959945679
0.069518 -0.011874 -0.032067 -0.0355600006878376 0.4684999883174896 -0.8827999830245972
-0.119422 0.040656 0.001723 -0.04328000172972679 0.0948299989104271 0.9945999979972839
-0.088202 0.011346 -0.052807 -0.29840001463890076 0.7577999830245972 0.5802000164985657
-0.234982 0.061456 0.001723 -0.02142000012099743 -0.004279999993741512 -0.9998000264167786
-0.230342 0.045356 0.001723 -0.057190001010894775 0.06296999752521515 -0.996399998664856
-0.202572 0.062646 0.001723 -0.045830000191926956 -0.009778999723494053 -0.9988999962806702
-0.239522 0.080676 0.001723 0.12290000170469284 0.010759999975562096 0.9923999905586243
-0.243542 0.114106 0.001723 -0.015010000206530094 -0.0032569998875260353 -0.9998999834060669
-0.233672 0.082566 0.001723 -0.04292000085115433 -0.009239999577403069 -0.9990000128746033
-0.194442 0.026606 0.001723 -0.04425999894738197 0.11710000038146973 -0.9921000003814697
-0.237732 0.095646 0.001723 -0.02986999973654747 -0.006527000106871128 -0.9994999766349792
-0.198622 0.062016 0.004433 0.0006430000066757202 0.019770000129938126 0.9998000264167786
-0.217732 0.093626 0.003873 0.10350000113248825 0.11180000007152557 0.9883000254631042
-0.165892 0.019346 0.009353 -0.10189999639987946 0.48489999771118164 0.8686000108718872
0.190328 -0.019234 -0.032067 0.0 0.0 -1.0
0.029258 -0.027194 -0.172827 -0.06549999862909317 -0.9959999918937683 -0.06154999881982803
0.031748 -0.027574 -0.169317 -0.06674999743700027 -0.9958999752998352 -0.06125999987125397
0.025618 -0.027294 -0.167277 -0.06565000116825104 -0.9958999752998352 -0.06154999881982803
0.017698 -0.019444 0.244223 -0.09066999703645706 -0.992900013923645 0.07694000005722046
0.011348 -0.020224 0.244113 -0.28110000491142273 0.9517999887466431 -0.12290000170469284
-0.263332 0.067106 0.001943 -0.09224999696016312 -0.06120999902486801 0.9939000010490417
-0.267422 0.074666 0.001893 -0.04554999992251396 -0.018360000103712082 -0.9987999796867371
-0.243252 0.043616 0.002433 -0.10140000283718109 0.09283000230789185 0.9904999732971191
0.014818 -0.031264 0.042683 -0.05415999889373779 -0.9562000036239624 0.2874999940395355
0.232058 0.024456 0.003073 0.5044999718666077 0.862500011920929 0.03976000100374222
-0.259992 0.070916 0.001723 -0.046549998223781586 -0.01889999955892563 0.9987000226974487
-0.258372 0.059806 0.001723 -0.1014999970793724 -0.03238999843597412 0.9943000078201294
0.064218 -0.033404 0.075263 -0.026890000328421593 -0.9995999932289124 0.011909999884665012
0.054878 -0.032944 0.064193 -0.052000001072883606 -0.9986000061035156 0.0017130000051110983
0.070518 -0.033774 0.052303 -0.03457999974489212 -0.9994000196456909 0.0024530000519007444
-0.014422 0.011016 0.072363 0.7821999788284302 -0.3898000121116638 -0.4860999882221222
0.078968 -0.040314 0.018413 0.0 -0.9233999848365784 0.3837999999523163
0.089228 -0.031754 0.071413 0.09398999810218811 -0.994700014591217 0.04185999929904938
-0.284222 0.140346 0.002163 -0.09257999807596207 -0.05646999925374985 0.9940999746322632
0.285268 -0.001294 0.022023 0.0507499985396862 0.9976000189781189 0.046160001307725906
0.054158 -0.011714 -0.344827 0.12549999356269836 0.9894999861717224 -0.07100000232458115
0.027648 -0.031384 0.090973 -0.05900000035762787 -0.998199999332428 0.0065310001373291016
-0.233502 0.047366 -0.050207 -0.0861700028181076 -0.9786999821662903 -0.18649999797344208
0.089648 -0.029844 -0.084287 0.4043999910354614 -0.8967999815940857 -0.179299995303154
0.041588 -0.006074 0.035513 7.699999696342275e-05 -0.06988000124692917 0.9976000189781189
0.202418 0.013246 0.029563 -0.11069999635219574 0.6262999773025513 0.7717000246047974
0.315658 -0.034304 0.022653 0.13910000026226044 -0.8463000059127808 0.51419997215271
0.123008 0.007196 0.032653 1.8999999156221747e-05 0.30070000886917114 0.9537000060081482
-0.058312 0.009446 -0.075297 -0.041200000792741776 0.19470000267028809 -0.9800000190734863
0.033858 -0.031854 0.062483 -0.042010001838207245 -0.9991000294685364 0.0017509999452158809
0.352848 -0.014484 0.004553 0.44780001044273376 0.8912000060081482 0.07274000346660614
0.001298 -0.039904 0.010293 -0.07784999907016754 -0.996999979019165 -0.0009889999637380242
0.007058 -0.040374 0.009753 -0.07818000018596649 -0.9261999726295471 0.36880001425743103
0.020158 -0.034324 -0.030107 -0.06233000010251999 -0.9578999876976013 -0.28029999136924744
-0.091572 0.004696 0.080023 -0.22859999537467957 -0.5127000212669373 0.8276000022888184
0.223068 0.011966 -0.026947 0.17980000376701355 0.574400007724762 -0.7986000180244446
0.193048 -0.007754 0.035513 -0.001551999943330884 0.0018840000266209245 1.0
-0.087952 0.039826 0.001723 0.026660000905394554 0.3292999863624573 -0.9437999725341797
-0.013842 -0.006124 -0.064487 0.7559000253677368 0.6389999985694885 0.14249999821186066
0.210478 -0.013724 0.035513 0.00013099999341648072 0.016170000657439232 0.9998999834060669
0.102938 -0.040764 0.017333 0.0 -0.92330002784729 0.3840000033378601
0.173518 -0.039574 0.020173 -7.000000186963007e-05 -0.9223999977111816 0.3862999975681305
0.283048 -0.048784 0.009473 0.0 -0.3474999964237213 -0.9376999735832214
0.035888 -0.015914 -0.331597 -0.09611999988555908 -0.9923999905586243 -0.07665999978780746
0.025098 -0.022604 -0.231937 -0.07721000164747238 -0.9941999912261963 -0.0744599997997284
0.025308 -0.020834 -0.255047 -0.08342000097036362 -0.9936000108718872 -0.07562000304460526
-0.067102 0.017596 -0.053517 0.16850000619888306 0.9075999855995178 0.3846000134944916
0.268618 -0.018814 0.034013 -0.06456000357866287 -0.04162000119686127 0.996999979019165
0.031258 -0.017754 -0.241737 -0.08872000128030777 0.994700014591217 0.052239999175071716
0.041448 -0.015024 -0.276547 -0.08235999941825867 0.9945999979972839 0.06387999653816223
0.034468 -0.018844 -0.213937 -0.09238000214099884 0.9944999814033508 0.05006000027060509
-0.001362 -0.026834 0.055573 -0.09410999715328217 0.9955000281333923 0.010400000028312206
-0.014682 -0.027994 0.045913 -0.09544000029563904 0.9627000093460083 0.2531999945640564
0.012448 -0.025784 0.079843 -0.0954200029373169 0.9954000115394592 0.011500000022351742
0.002898 -0.025424 -0.167927 -0.09046000242233276 -0.993399977684021 -0.06992000341415405
-0.218322 0.055106 -0.082007 -0.024399999529123306 0.9757999777793884 0.21739999949932098
0.014328 -0.025784 0.110393 -0.26980000734329224 0.961899995803833 0.04422999918460846
-0.221672 0.053556 -0.073137 -0.020579999312758446 0.9864000082015991 0.16279999911785126
-0.006512 -0.027024 0.135793 -0.15639999508857727 -0.9837999939918518 0.08754999935626984
-0.072052 0.019976 0.063613 -0.1453000009059906 0.9643999934196472 -0.2207999974489212
-0.049632 -0.027764 0.026963 -0.12240000069141388 -0.5005000233650208 0.8569999933242798
-0.086692 -0.024624 0.012973 -0.22589999437332153 -0.9083999991416931 0.35179999470710754
-0.063862 -0.027854 0.018473 -0.21789999306201935 -0.9009000062942505 0.37540000677108765
-0.075882 -0.026434 0.014903 -0.21860000491142273 -0.9153000116348267 0.33820000290870667
-0.115422 -0.019004 0.009753 -0.21799999475479126 -0.9010000228881836 0.3752000033855438
-0.068942 -0.028754 0.013373 -0.21789999306201935 -0.9009000062942505 0.37540000677108765
-0.068882 0.019886 0.067533 -0.053599998354911804 0.9589999914169312 0.2782000005245209
0.285388 -0.042104 0.012103 0.020409999415278435 -0.9222999811172485 0.38589999079704285
0.332778 -0.031434 -0.018647 0.22930000722408295 -0.7993000149726868 -0.5554999709129333
0.070728 -0.028094 -0.157047 0.057110000401735306 -0.9959999918937683 -0.06931000202894211
0.054298 -0.028654 -0.162207 0.05519000068306923 -0.9962000250816345 -0.06775999814271927
-0.022232 0.008256 -0.028577 -0.0001500000071246177 0.994700014591217 -0.10249999910593033
0.071358 -0.019664 -0.036247 -0.04989999905228615 0.7860000133514404 -0.6161999702453613
0.142478 -0.028994 0.032633 4.199999966658652e-05 -0.39160001277923584 0.9200999736785889
0.309318 -0.003704 -0.011717 0.17470000684261322 0.9739000201225281 -0.1446000039577484
-0.030082 -0.003994 -0.031647 -0.028909999877214432 0.11900000274181366 -0.9925000071525574
0.035318 -0.021654 0.039403 -0.18299999833106995 0.8616999983787537 0.4731999933719635
0.123458 0.017786 -0.023157 -1.1000000085914508e-05 0.7268999814987183 -0.6868000030517578
-0.129752 0.005816 0.020333 -0.13940000534057617 0.13330000638961792 0.9811999797821045
0.095718 -0.042574 -0.007457 0.0 -0.9970999956130981 -0.07660999894142151
0.144078 0.024696 -0.015317 0.04196000099182129 0.6956999897956848 -0.7171000242233276
-0.014792 0.002616 -0.046787 0.1518000066280365 -0.5756000280380249 0.8034999966621399
0.076858 -0.024164 0.093503 -0.012889999896287918 0.9873999953269958 0.15800000727176666
0.068838 -0.023834 0.100433 0.09019999951124191 0.9944000244140625 0.05423999950289726
-0.225002 0.091506 0.001723 -0.045830000191926956 -0.009765000082552433 -0.9988999962806702
-0.190032 0.032036 0.001723 -0.04586999863386154 -0.006643000058829784 -0.9988999962806702
-0.247222 0.045346 0.001723 -0.04552999883890152 -0.018319999799132347 -0.9987999796867371
-0.214222 0.078156 0.001723 -0.12229999899864197 -0.05496000126004219 0.9909999966621399
-0.228222 0.049536 0.001723 0.0435900017619133 0.03274000063538551 0.9984999895095825
-0.180902 0.035916 0.001723 0.012729999609291553 0.034869998693466187 -0.9993000030517578
-0.208072 0.080166 0.001723 0.10700000077486038 0.10360000282526016 -0.9887999892234802
-0.233562 0.103356 0.001723 -0.04580000042915344 -0.009763999842107296 -0.9988999962806702
0.054088 -0.014464 -0.289437 0.02783999964594841 0.9939000010490417 0.1062999963760376
0.057908 -0.017344 -0.239057 0.08004000037908554 0.9955000281333923 0.05087999999523163
-0.086312 -0.025834 0.002903 -0.2142000049352646 -0.9768000245094299 0.00010800000018207356
-0.046892 -0.034504 0.011813 -0.22050000727176666 -0.9124000072479248 0.3447999954223633
-0.279062 0.097756 0.001723 -0.21739999949932098 -0.12520000338554382 -0.9679999947547913
0.035058 -0.031884 -0.073007 -0.04332000017166138 -0.9991000294685364 -0.002022000029683113
0.018748 -0.028894 0.137573 -0.066880002617836 -0.9958999752998352 0.06164000183343887
0.027588 -0.028084 0.160073 -0.06464000046253204 -0.9961000084877014 0.060679998248815536
0.141758 0.018596 0.026083 -1.700000029813964e-05 0.6904000043869019 0.7233999967575073
-0.231392 0.042086 0.010843 -0.25450000166893005 0.9556000232696533 -0.14820000529289246
-0.231352 0.055136 0.090623 -0.0846100002527237 0.9821000099182129 -0.16830000281333923
-0.077262 0.010226 -0.074527 0.21439999341964722 -0.2653000056743622 0.9399999976158142
0.027838 -0.018014 0.298063 -0.22550000250339508 0.9732000231742859 -0.044690001755952835
0.031388 -0.016454 0.322603 -0.09521999955177307 -0.9925000071525574 0.0764399990439415
0.027218 -0.021264 0.255373 -0.09529999643564224 -0.9925000071525574 0.07697000354528427
0.351038 -0.015824 0.012913 0.6036999821662903 0.635699987411499 0.4812000095844269
0.099188 -0.029864 -0.062747 0.5964999794960022 0.7660999894142151 -0.2395000010728836
0.037758 -0.065664 -0.098447 0.017659999430179596 -0.8087999820709229 -0.5878000259399414
0.295428 -0.023754 0.031743 0.13429999351501465 -0.45829999446868896 0.878600001335144
-0.228122 0.051276 0.076583 -0.05471999943256378 -0.980400025844574 0.1891999989748001
-0.236562 0.045906 0.044563 -0.08716999739408493 -0.9783999919891357 0.1876000016927719
-0.230382 0.052086 0.079793 -0.07904999703168869 -0.9789999723434448 0.18799999356269836
0.240038 -0.042574 0.011923 0.0 -0.980400025844574 0.19699999690055847
0.071378 -0.020934 0.242733 0.9950000047683716 -0.04171000048518181 0.09053000062704086
0.074898 -0.024764 0.189963 0.9257000088691711 -0.3402000069618225 0.16519999504089355
0.205908 -0.042574 -0.000537 0.0 -1.0 0.0
0.249528 -0.042574 0.000073 0.0 -1.0 0.0
0.172768 -0.042574 -0.006437 0.0 -1.0 0.0
0.090348 -0.042574 -0.006767 0.0 -1.0 0.0
0.003238 0.005236 -0.072037 -0.038830000907182693 0.10589999705553055 0.9936000108718872
-0.218292 0.048156 -0.056757 -0.06235000118613243 0.9911999702453613 0.1168999969959259
-0.207032 0.052136 -0.075567 -0.0038980001118034124 0.9861000180244446 0.16590000689029694
-0.205212 0.040036 -0.009367 0.04506999999284744 -0.9825999736785889 -0.18039999902248383
0.051578 -0.032804 0.045773 -0.051750000566244125 -0.9984999895095825 0.01827000081539154
-0.237742 0.015696 0.003403 -0.1581999957561493 -0.013269999995827675 0.9872999787330627
0.035648 -0.030394 0.130143 -0.05891000106930733 -0.9965000152587891 0.059039998799562454
0.040988 -0.029824 0.145013 -0.05821999907493591 -0.9965999722480774 0.058329999446868896
0.032188 -0.031384 0.109963 -0.1607999950647354 -0.6607000231742859 -0.7332000136375427
0.047038 -0.031704 0.119243 -0.020989999175071716 -0.9976999759674072 0.06465999782085419
0.192788 0.001826 -0.030717 -1.1000000085914508e-05 0.27079999446868896 -0.9625999927520752
-0.197152 0.058416 -0.001027 -0.04270999878644943 -0.006639999803155661 -0.9991000294685364
-0.172292 0.018636 -0.005997 -0.11789999902248383 0.6439999938011169 -0.7559000253677368
-0.013252 -0.028414 -0.080407 -0.11330000311136246 0.9918000102043152 -0.0595100000500679
0.010648 -0.026144 -0.094457 -0.0646200031042099 0.9944000244140625 0.08409000188112259
-0.009642 -0.028074 -0.082757 -0.19589999318122864 0.980400025844574 0.021700000390410423
0.223568 -0.000764 -0.031397 -0.0005939999828115106 -0.049479998648166656 -0.9987999796867371
-0.088572 0.008216 0.041273 -0.052390001714229584 0.9962000250816345 -0.07009000331163406
-0.041052 -0.002354 -0.076057 -0.14159999787807465 -0.211899995803833 -0.9670000076293945
-0.089222 0.021946 0.014393 -0.0707399994134903 0.6935999989509583 0.7168999910354614
-0.095992 0.021806 0.013743 0.009189999662339687 0.8496999740600586 0.5271000266075134
-0.046072 0.024166 0.014423 -0.06702999770641327 0.7875000238418579 0.6126999855041504
-0.072512 0.000316 0.076133 -0.09432999789714813 -0.4571000039577484 0.8844000101089478
-0.030562 -0.000594 0.049743 0.04125000163912773 -0.4909999966621399 -0.870199978351593
-0.013362 -0.011224 -0.066557 0.3774999976158142 -0.8138999938964844 -0.4417000114917755
0.248608 -0.003064 -0.029687 0.10530000180006027 0.6895999908447266 -0.7164999842643738
-0.005662 -0.027734 0.091123 -0.1039000004529953 0.9944999814033508 0.016170000657439232
-0.013152 -0.028194 0.071283 -0.07887999713420868 -0.9968000054359436 0.012140000239014626
0.067958 -0.018424 0.235613 0.1915999948978424 0.965399980545044 -0.1768999993801117
0.059268 -0.016064 0.269413 0.06800000369548798 0.9962999820709229 -0.05341999977827072
0.050568 -0.012844 0.318733 0.11299999803304672 0.9934999942779541 -0.012419999577105045
0.004618 -0.026914 0.106443 -0.012389999814331532 0.9966999888420105 -0.08058000355958939
0.001258 -0.027044 0.093113 -0.0771699994802475 -0.9969000220298767 0.011920000426471233
-0.261412 0.111306 0.001723 -0.010990000329911709 -0.004749000072479248 -0.9998999834060669
-0.265662 0.122066 0.001723 -0.022280000150203705 -0.009460999630391598 -0.9997000098228455
0.019428 -0.030484 -0.108857 -0.06532000005245209 -0.9959999918937683 -0.060600001364946365
0.045488 -0.027894 -0.178617 0.01104000024497509 -0.9979000091552734 -0.06315000355243683
-0.042912 -0.012584 -0.030967 -0.15729999542236328 -0.012059999629855156 -0.987500011920929
0.045848 -0.022564 -0.251717 -0.0419900007545948 -0.996399998664856 -0.07308000326156616
0.027048 -0.025324 -0.197467 -0.06526999920606613 -0.995199978351593 -0.07322999835014343
0.039148 -0.024964 -0.213217 -0.06541000306606293 -0.995199978351593 -0.07337000221014023
0.046508 -0.017914 -0.315377 0.04510999843478203 -0.9962000250816345 -0.07444000244140625
0.044288 -0.019134 -0.296807 -0.04250999912619591 -0.996999979019165 -0.0646200031042099
0.076708 -0.023984 -0.176557 0.6464999914169312 -0.7551000118255615 -0.10869999974966049
0.067608 -0.033184 -0.073857 0.056779999285936356 -0.9975000023841858 -0.04270000010728836
-0.054002 0.026846 -0.000757 -0.053300000727176666 0.4178999960422516 -0.9068999886512756
-0.166612 0.033206 -0.000777 0.005911999847739935 0.1023000031709671 -0.994700014591217
-0.166042 0.037456 -0.000337 0.017179999500513077 0.10289999842643738 -0.9944999814033508
-0.070682 0.004966 -0.077007 -0.04721999913454056 -0.8478999733924866 -0.527999997138977
0.248558 -0.008154 -0.031787 -0.03844999894499779 0.14480000734329224 -0.9886999726295471
-0.016352 -0.028604 0.063473 -0.6047999858856201 -0.7942000031471252 0.059539999812841415
0.010028 -0.030144 0.104883 -0.07912000268697739 -0.9965999722480774 0.021530000492930412
-0.142952 0.007686 -0.014747 -0.13840000331401825 0.16130000352859497 -0.9771999716758728
0.069808 0.020836 -0.020457 0.0 0.7268999814987183 -0.6868000030517578
0.084758 0.021426 -0.019797 1.700000029813964e-05 0.7268999814987183 -0.6866999864578247
0.328878 -0.023834 -0.023257 0.2727000117301941 -0.1468999981880188 -0.9508000016212463
0.071968 -0.032184 0.094903 0.0568699985742569 -0.9975000023841858 0.04270999878644943
-0.085582 -0.001294 0.027593 -0.19179999828338623 -0.014790000393986702 0.9812999963760376
0.036208 -0.067814 0.101553 -0.17239999771118164 -0.6744999885559082 0.7178999781608582
0.031648 0.016506 0.027413 -0.12809999287128448 0.4399000108242035 0.8888999819755554
-0.002972 -0.025334 -0.036847 -0.10440000146627426 0.9650999903678894 -0.24009999632835388
-0.030452 -0.028114 -0.028957 -0.07039999961853027 -0.8816999793052673 -0.46650001406669617
-0.221982 0.057936 0.103203 -0.04623999819159508 0.9901999831199646 -0.13189999759197235
-0.221572 0.053966 0.079073 0.008886000141501427 -0.9824000000953674 0.1867000013589859
0.113668 -0.028444 -0.038867 0.35659998655319214 -0.8299000263214111 -0.42899999022483826
0.024268 -0.022054 -0.168167 -0.09788999706506729 0.9941999912261963 0.045090001076459885
0.043858 -0.029214 -0.154737 -0.058889999985694885 -0.9965000152587891 -0.05900000035762787
0.042248 -0.030814 -0.126047 -0.058970000594854355 -0.9965000152587891 -0.05900999903678894
0.044298 -0.031674 -0.113627 -0.0587799996137619 -0.9965999722480774 -0.05821000039577484
0.353148 -0.027654 -0.009397 0.5972999930381775 -0.41179999709129333 -0.6881999969482422
0.165638 0.005916 -0.029567 -7.000000096013537e-06 0.27090001106262207 -0.9625999927520752
-0.113522 -0.019844 -0.002067 -0.22130000591278076 -0.9747999906539917 -0.029759999364614487
-0.077192 -0.014024 -0.024367 -0.19009999930858612 -0.290800005197525 -0.9376999735832214
0.069158 -0.023474 -0.089687 -0.009998000226914883 0.9983000159263611 0.057659998536109924
0.094468 -0.005074 -0.031947 0.00039599998854100704 0.09395000338554382 -0.9955999851226807
-0.234392 0.056426 0.099143 -0.12439999729394913 0.9763000011444092 -0.1770000010728836
0.226758 0.015556 -0.022687 0.373199999332428 0.6229000091552734 -0.6875
0.244788 -0.037794 -0.020967 0.016979999840259552 -0.9225000143051147 -0.3856000006198883
0.041208 -0.032184 0.091033 -0.05534999817609787 -0.9984999895095825 0.005183999892324209
-0.014422 0.007396 -0.048377 0.23600000143051147 0.16429999470710754 -0.9577999711036682
-0.083952 0.004276 -0.077037 -1.2000000424450263e-05 -0.28029999136924744 -0.9599000215530396
0.050628 -0.019354 0.191123 0.15150000154972076 0.9883000254631042 0.01907999999821186
0.066698 -0.019414 0.216163 0.08309999853372574 0.9952999949455261 -0.05059000104665756
0.052988 -0.014284 0.294643 0.06931000202894211 0.9958000183105469 -0.05982000008225441
0.336608 -0.013094 0.023013 0.3662000000476837 0.31119999289512634 0.8769999742507935
0.079738 -0.025994 0.145283 0.6897000074386597 -0.7020999789237976 0.17720000445842743
0.115378 -0.031094 -0.032447 0.325300008058548 -0.8197000026702881 -0.4713999927043915
0.019118 -0.023174 -0.154327 -0.24379999935626984 0.9693999886512756 0.03002000041306019
0.249908 -0.034344 -0.026567 0.05090000107884407 -0.41600000858306885 -0.9078999757766724
